<svg width="59" height="128" viewBox="0 0 59 128" fill="none" xmlns="http://www.w3.org/2000/svg">
<g opacity="0.5">
<circle cx="4" cy="4" r="4" fill="#928EDB"/>
<circle cx="4" cy="24" r="4" fill="#928EDB"/>
<circle cx="4" cy="44" r="4" fill="#928EDB"/>
<circle cx="4" cy="64" r="4" fill="#928EDB"/>
<circle cx="4" cy="84" r="4" fill="#928EDB"/>
<circle cx="4" cy="104" r="4" fill="#928EDB"/>
<circle cx="4" cy="124" r="4" fill="#928EDB"/>
<circle cx="21" cy="4" r="4" fill="#928EDB"/>
<circle cx="21" cy="24" r="4" fill="#928EDB"/>
<circle cx="21" cy="44" r="4" fill="#928EDB"/>
<circle cx="21" cy="64" r="4" fill="#928EDB"/>
<circle cx="21" cy="84" r="4" fill="#928EDB"/>
<circle cx="21" cy="104" r="4" fill="#928EDB"/>
<circle cx="21" cy="124" r="4" fill="#928EDB"/>
<circle cx="38" cy="4" r="4" fill="#928EDB"/>
<circle cx="38" cy="24" r="4" fill="#928EDB"/>
<circle cx="38" cy="44" r="4" fill="#928EDB"/>
<circle cx="38" cy="64" r="4" fill="#928EDB"/>
<circle cx="38" cy="84" r="4" fill="#928EDB"/>
<circle cx="38" cy="104" r="4" fill="#928EDB"/>
<circle cx="38" cy="124" r="4" fill="#928EDB"/>
<circle cx="55" cy="4" r="4" fill="#928EDB"/>
<circle cx="55" cy="24" r="4" fill="#928EDB"/>
<circle cx="55" cy="44" r="4" fill="#928EDB"/>
<circle cx="55" cy="64" r="4" fill="#928EDB"/>
<circle cx="55" cy="84" r="4" fill="#928EDB"/>
<circle cx="55" cy="104" r="4" fill="#928EDB"/>
<circle cx="55" cy="124" r="4" fill="#928EDB"/>
</g>
</svg>
