<svg width="41" height="39" viewBox="0 0 41 39" fill="none" xmlns="http://www.w3.org/2000/svg">
<path d="M41 18.4197C40.7251 19.0468 40.5415 19.738 40.1553 20.2878C39.3276 21.4656 38.1187 22.0034 36.676 22.0034H31.2013V27.2283C31.727 27.2283 32.2557 27.2403 32.7824 27.2162C32.8637 27.2162 32.961 27.0487 33.0081 26.9413C33.9111 24.8526 36.6469 24.4483 38.0725 26.211C38.837 27.156 38.9755 28.2285 38.4678 29.3281C37.9371 30.4758 36.982 31.0737 35.7239 31.0617C34.497 31.0496 33.587 30.4367 33.0683 29.322C32.9249 29.0211 32.7754 28.9207 32.4523 28.9268C31.7992 28.9508 31.1481 28.9398 30.49 28.9328C29.7767 28.9248 29.4677 28.6128 29.4667 27.8974C29.4627 26.0956 29.4627 24.2934 29.4667 22.4909V22.0304H25.1989V22.4618C25.1989 25.8127 25.1972 29.1635 25.1938 32.5144C25.1938 32.7812 25.243 32.9347 25.5249 33.0521C26.1512 33.3176 26.6667 33.7911 26.9844 34.3926C27.3021 34.9942 27.4024 35.6869 27.2686 36.3538C27.135 37.0326 26.7698 37.6439 26.2355 38.0833C25.7012 38.5228 25.0309 38.763 24.3391 38.763C23.6473 38.763 22.9769 38.5228 22.4426 38.0833C21.9083 37.6439 21.5432 37.0326 21.4096 36.3538C21.2767 35.6865 21.3767 34.9937 21.693 34.3912C22.0092 33.7887 22.5225 33.3128 23.1472 33.0431C23.3649 32.9498 23.4853 32.8635 23.4843 32.5926C23.4743 29.1615 23.4783 25.7304 23.4773 22.3003C23.4773 22.2211 23.4683 22.1418 23.4612 22.0314H17.53C17.523 22.1689 17.51 22.2983 17.51 22.4327C17.51 25.7963 17.508 29.1605 17.5039 32.5254C17.5039 32.8003 17.5732 32.9408 17.845 33.0561C18.4707 33.3242 18.9847 33.8 19.3 34.4033C19.6153 35.0065 19.7127 35.7001 19.5756 36.3669C19.44 37.0452 19.073 37.6555 18.5373 38.0933C18.0016 38.531 17.3305 38.7692 16.6387 38.7671C15.9469 38.7649 15.2773 38.5226 14.7444 38.0816C14.2114 37.6405 13.8481 37.028 13.7167 36.3488C13.5875 35.6811 13.6907 34.9894 14.0089 34.3884C14.3272 33.7875 14.8415 33.3134 15.4663 33.0451C15.667 32.9608 15.7964 32.8956 15.7954 32.6298C15.7844 29.1726 15.7874 25.7144 15.7864 22.2572C15.7864 22.192 15.7763 22.1278 15.7673 22.0355H11.5216V22.4618C11.5216 24.251 11.5216 26.0398 11.5216 27.8282C11.5216 28.6429 11.2296 28.9318 10.409 28.9318C9.74181 28.9318 9.07365 28.9418 8.40247 28.9318C8.16771 28.9318 8.05936 29.003 7.96706 29.2257C7.71701 29.8311 7.2743 30.337 6.70752 30.6652C6.14074 30.9934 5.48154 31.1255 4.83207 31.0411C4.18259 30.9566 3.5791 30.6603 3.11511 30.1981C2.65112 29.7358 2.35253 29.1335 2.2656 28.4843C2.05392 27.0025 2.96788 25.6411 4.46673 25.2077C5.83215 24.8125 7.36411 25.5398 7.93195 26.8832C8.05133 27.1651 8.18878 27.2614 8.48775 27.2413C8.91112 27.2122 9.3375 27.2343 9.79197 27.2343V22.0034H9.35054C7.73531 22.0034 6.12008 22.0034 4.50485 22.0034C2.9448 22.0034 1.67067 21.4124 0.792832 20.0972C0.10962 19.0789 -0.0197962 17.9011 0.00227528 16.7192C0.0704962 13.0012 3.03911 10.1118 6.84945 10.0386C7.1444 10.0336 7.26178 9.93829 7.35608 9.67543C8.21988 7.23253 10.5504 5.8029 13.1007 6.14601C13.3425 6.17911 13.4488 6.10086 13.5582 5.89419C15.2858 2.65069 17.9584 0.662252 21.5912 0.129527C25.2239 -0.403198 28.3992 0.713416 30.9675 3.36701C32.9138 5.38253 33.8669 7.83648 33.9472 10.6325C33.9472 10.7329 33.9582 10.8422 33.9592 10.8683C34.8511 11.0689 35.74 11.1522 36.5476 11.4582C38.9895 12.3812 40.4201 14.1931 40.9107 16.7534C40.9358 16.8818 40.9699 17.0092 41 17.1366V18.4197ZM20.5338 20.2828H36.3891C36.5767 20.2828 36.7633 20.2828 36.9499 20.2707C37.5908 20.2423 38.195 19.9637 38.6328 19.4948C39.0706 19.0259 39.3071 18.404 39.2915 17.7626C39.2604 14.6526 36.4352 12.2859 33.3422 12.7805C32.5828 12.9019 32.1855 12.5417 32.1815 11.7692C32.1815 10.9716 32.2136 10.164 32.1052 9.37847C31.5033 5.0003 27.5003 1.56819 23.076 1.71767C19.2175 1.84809 16.4495 3.7342 14.8092 7.24055C14.4491 8.01105 14.1902 8.15752 13.3736 7.94283C12.7819 7.77071 12.1554 7.75687 11.5567 7.9027C10.0087 8.304 9.0907 9.30725 8.79675 10.8783C8.64827 11.6739 8.33124 11.8595 7.51159 11.8073C6.89258 11.7682 6.24448 11.7642 5.64655 11.9077C2.96085 12.5357 1.34362 15.086 1.75495 17.8198C2.00075 19.4601 3.07121 20.3199 4.71152 20.3059C9.9866 20.2547 15.2567 20.2828 20.5317 20.2828H20.5338ZM16.6522 34.5098C16.316 34.5074 15.9924 34.638 15.7521 34.8731C15.5117 35.1082 15.374 35.4287 15.369 35.7649C15.3637 35.9359 15.3928 36.1063 15.4544 36.2659C15.5161 36.4255 15.6092 36.5711 15.7281 36.6942C15.847 36.8172 15.9893 36.9152 16.1468 36.9822C16.3042 37.0493 16.4734 37.0841 16.6445 37.0847C16.8157 37.0852 16.9851 37.0514 17.143 36.9854C17.3008 36.9193 17.4438 36.8222 17.5635 36.6999C17.6831 36.5776 17.7771 36.4326 17.8398 36.2734C17.9024 36.1142 17.9325 35.944 17.9283 35.7729C17.9251 35.4367 17.7893 35.1153 17.5503 34.8787C17.3112 34.6421 16.9885 34.5096 16.6522 34.5098ZM25.6182 35.787C25.6149 35.4528 25.481 35.1333 25.2452 34.8965C25.0094 34.6597 24.6903 34.5246 24.3562 34.5199C24.0221 34.5151 23.6994 34.6413 23.457 34.8713C23.2146 35.1013 23.0717 35.417 23.0589 35.7509C23.0524 35.9215 23.08 36.0916 23.1403 36.2514C23.2005 36.4111 23.292 36.5572 23.4095 36.681C23.527 36.8049 23.6681 36.904 23.8245 36.9725C23.9809 37.041 24.1494 37.0775 24.3201 37.0799C24.4908 37.0823 24.6602 37.0505 24.8185 36.9865C24.9767 36.9224 25.1205 36.8274 25.2415 36.7069C25.3625 36.5864 25.4581 36.443 25.5228 36.285C25.5875 36.127 25.6199 35.9577 25.6182 35.787ZM5.22418 26.8149C4.88745 26.8136 4.56384 26.9454 4.32387 27.1816C4.08389 27.4178 3.947 27.7393 3.94303 28.076C3.94673 28.4195 4.08577 28.7476 4.32996 28.9892C4.57415 29.2307 4.90378 29.3662 5.24726 29.3662C5.58379 29.3593 5.90398 29.2198 6.13811 28.978C6.37224 28.7361 6.50134 28.4116 6.4973 28.075C6.49785 27.9083 6.4652 27.7431 6.40125 27.5891C6.3373 27.4351 6.24334 27.2954 6.12483 27.1781C6.00633 27.0609 5.86566 26.9683 5.71103 26.906C5.5564 26.8436 5.3909 26.8127 5.22418 26.8149ZM35.7861 26.8149C35.6197 26.8107 35.454 26.8396 35.2988 26.9001C35.1437 26.9606 35.0021 27.0514 34.8825 27.1672C34.7628 27.2831 34.6675 27.4216 34.602 27.5747C34.5365 27.7278 34.5021 27.8924 34.501 28.059C34.4971 28.2288 34.5272 28.3976 34.5895 28.5556C34.6517 28.7136 34.745 28.8576 34.8637 28.9791C34.9823 29.1006 35.1241 29.1972 35.2806 29.2631C35.4371 29.3291 35.6053 29.3631 35.7751 29.3632C36.1103 29.355 36.4294 29.2181 36.6663 28.9808C36.9032 28.7436 37.0396 28.4242 37.0472 28.0891C37.0472 27.7528 36.9142 27.4302 36.6772 27.1916C36.4402 26.9531 36.1184 26.8181 35.7821 26.8159L35.7861 26.8149Z" fill="#6C67D4"/>
<path d="M20.5328 20.2829C15.2597 20.2829 9.98765 20.2548 4.71558 20.2989C3.07527 20.313 2.00681 19.4532 1.759 17.8129C1.34767 15.079 2.9629 12.5288 5.6506 11.9007C6.25255 11.7613 6.89664 11.7653 7.51564 11.8004C8.33529 11.8526 8.65232 11.667 8.8008 10.8714C9.09476 9.30031 10.0127 8.29807 11.5607 7.89576C12.1594 7.74994 12.7859 7.76378 13.3776 7.93589C14.1943 8.1536 14.4531 8.00712 14.8133 7.23362C16.4536 3.72727 19.2215 1.84116 23.08 1.71074C27.5013 1.56125 31.5023 4.99336 32.1093 9.37154C32.2176 10.1571 32.1825 10.9647 32.1855 11.7623C32.1855 12.5348 32.5868 12.8949 33.3463 12.7736C36.4393 12.279 39.2654 14.6456 39.2955 17.7557C39.3111 18.397 39.0747 19.0189 38.6369 19.4879C38.1991 19.9568 37.5949 20.2354 36.954 20.2638C36.7674 20.2748 36.5807 20.2758 36.3931 20.2758L20.5328 20.2829ZM22.8202 3.42027C20.7836 3.47344 18.8192 4.40546 17.3545 6.28856C16.9201 6.84737 16.6051 7.51152 16.3001 8.15861C16.1075 8.56894 16.3382 9.01238 16.7285 9.19798C17.1187 9.38358 17.5572 9.25416 17.8019 8.85988C17.9098 8.67624 18.008 8.48703 18.0959 8.29305C19.4122 5.55819 22.8112 4.34025 25.545 5.66253C27.5936 6.65474 28.6601 8.32917 28.8307 10.5965C28.8525 10.8831 28.9532 11.1581 29.1216 11.3911C29.3313 11.667 29.6834 11.6921 30.0024 11.5586C30.4118 11.3861 30.5312 11.0419 30.5231 10.6136C30.4429 6.62866 27.1964 3.44836 22.8202 3.42027ZM3.39028 16.9109C3.43744 17.2531 3.46051 17.6002 3.53877 17.9353C3.58574 18.136 3.70517 18.3123 3.87414 18.4304C4.04311 18.5485 4.24974 18.6001 4.45439 18.5752C4.65903 18.5503 4.8473 18.4508 4.98307 18.2957C5.11885 18.1406 5.19257 17.9408 5.19011 17.7346C5.19011 17.549 5.15299 17.3634 5.14898 17.1778C5.14396 16.9541 5.11788 16.7193 5.17005 16.5066C5.38675 15.6238 6.00676 15.2375 6.87557 15.1442C7.39425 15.088 7.72131 14.6777 7.66412 14.2243C7.60493 13.7497 7.21467 13.4427 6.70201 13.4648C4.85001 13.542 3.41938 15.0409 3.39028 16.9109ZM37.5659 17.6303C37.5198 15.9107 35.9086 14.3717 34.2031 14.4199C33.7185 14.4329 33.3463 14.774 33.3192 15.2295C33.2931 15.6579 33.6121 16.0241 34.0827 16.1043C35.3157 16.315 35.6287 16.614 35.8885 17.8299C35.9888 18.2954 36.3691 18.6115 36.7914 18.5733C37.263 18.5292 37.579 18.148 37.5659 17.6303Z" fill="#6C67D4"/>
<path d="M16.6508 34.5104C16.9871 34.5101 17.3098 34.6427 17.5488 34.8792C17.7878 35.1158 17.9237 35.4372 17.9269 35.7735C17.9311 35.9445 17.901 36.1147 17.8383 36.2739C17.7757 36.4331 17.6817 36.5782 17.562 36.7004C17.4424 36.8227 17.2994 36.9198 17.1416 36.9859C16.9837 37.052 16.8142 37.0857 16.6431 37.0852C16.472 37.0847 16.3028 37.0498 16.1453 36.9827C15.9879 36.9157 15.8456 36.8177 15.7267 36.6947C15.6077 36.5717 15.5147 36.426 15.453 36.2664C15.3914 36.1068 15.3623 35.9365 15.3676 35.7654C15.3726 35.4293 15.5103 35.1087 15.7507 34.8736C15.991 34.6385 16.3146 34.5079 16.6508 34.5104Z" fill="#EFEFFA"/>
<path d="M25.6185 35.7825C25.6203 35.9532 25.5878 36.1225 25.5231 36.2805C25.4584 36.4385 25.3628 36.5819 25.2418 36.7024C25.1209 36.8229 24.977 36.9179 24.8188 36.982C24.6606 37.046 24.4911 37.0778 24.3204 37.0754C24.1497 37.073 23.9812 37.0364 23.8248 36.9679C23.6685 36.8994 23.5274 36.8004 23.4099 36.6765C23.2924 36.5527 23.2008 36.4066 23.1406 36.2469C23.0804 36.0871 23.0527 35.9169 23.0593 35.7464C23.072 35.4124 23.2149 35.0968 23.4573 34.8668C23.6997 34.6367 24.0224 34.5106 24.3565 34.5153C24.6906 34.5201 25.0097 34.6552 25.2455 34.892C25.4813 35.1287 25.6152 35.4483 25.6185 35.7825Z" fill="#EFEFFA"/>
<path d="M5.22268 26.8152C5.38923 26.8132 5.55452 26.8444 5.70891 26.9068C5.86331 26.9693 6.00374 27.0619 6.12203 27.1791C6.24032 27.2964 6.33411 27.436 6.39793 27.5899C6.46176 27.7437 6.49435 27.9087 6.4938 28.0753C6.49784 28.4119 6.36874 28.7364 6.13461 28.9782C5.90048 29.2201 5.58028 29.3596 5.24375 29.3665C4.90027 29.3665 4.57065 29.231 4.32646 28.9894C4.08227 28.7479 3.94323 28.4197 3.93953 28.0763C3.9435 27.7392 4.08066 27.4174 4.32107 27.1812C4.56148 26.9449 4.88561 26.8133 5.22268 26.8152Z" fill="#EFEFFA"/>
<path d="M35.7812 26.8165C36.1174 26.8186 36.4392 26.9537 36.6762 27.1922C36.9132 27.4307 37.0463 27.7534 37.0463 28.0896C37.0391 28.4258 36.9024 28.7463 36.6646 28.9841C36.4268 29.2218 36.1063 29.3586 35.7701 29.3658C35.6003 29.3657 35.4322 29.3316 35.2757 29.2657C35.1191 29.1997 34.9774 29.1032 34.8587 28.9817C34.74 28.8602 34.6468 28.7162 34.5845 28.5582C34.5222 28.4002 34.4921 28.2313 34.496 28.0615C34.497 27.8949 34.5313 27.7302 34.5967 27.577C34.6621 27.4237 34.7575 27.2851 34.8772 27.1692C34.9968 27.0532 35.1384 26.9623 35.2936 26.9018C35.4489 26.8412 35.6146 26.8122 35.7812 26.8165Z" fill="#EFEFFA"/>
<path d="M22.8181 3.41988C27.1912 3.44797 30.4428 6.63028 30.521 10.6132C30.529 11.0416 30.4096 11.3857 30.0003 11.5582C29.6813 11.6927 29.3292 11.6666 29.1195 11.3907C28.9511 11.1577 28.8504 10.8827 28.8285 10.5961C28.658 8.32878 27.5915 6.65435 25.5429 5.66214C22.81 4.33986 19.41 5.56182 18.0938 8.29266C18.0058 8.48664 17.9077 8.67585 17.7998 8.85949C17.555 9.25377 17.1196 9.3852 16.7263 9.19759C16.3331 9.00998 16.1053 8.56855 16.298 8.15822C16.5989 7.51113 16.918 6.84698 17.3524 6.28817C18.8171 4.40507 20.7815 3.47305 22.8181 3.41988Z" fill="#EFEFFA"/>
<path d="M3.38869 16.9101C3.41779 15.04 4.84842 13.5392 6.69941 13.4609C7.21207 13.4388 7.60234 13.7458 7.66153 14.2204C7.71871 14.6738 7.39165 15.0842 6.87298 15.1404C6.00416 15.2337 5.38415 15.6199 5.16745 16.5028C5.11528 16.7155 5.14137 16.9502 5.14639 17.1739C5.14639 17.3595 5.19053 17.5451 5.18752 17.7307C5.18998 17.9369 5.11625 18.1367 4.98048 18.2918C4.84471 18.4469 4.65644 18.5465 4.45179 18.5713C4.24714 18.5962 4.04052 18.5446 3.87155 18.4265C3.70257 18.3084 3.58315 18.1321 3.53617 17.9314C3.45892 17.5993 3.43585 17.2532 3.38869 16.9101Z" fill="#EFEFFA"/>
<path d="M37.5644 17.6303C37.5775 18.1479 37.2634 18.5332 36.7839 18.5723C36.3645 18.6104 35.9813 18.2944 35.881 17.8289C35.6241 16.613 35.3111 16.314 34.0751 16.1033C33.6046 16.023 33.2856 15.6569 33.3116 15.2285C33.3387 14.773 33.7129 14.4319 34.1955 14.4189C35.907 14.3717 37.5183 15.9107 37.5644 17.6303Z" fill="#EFEFFA"/>
</svg>
