<svg width="12" height="12" viewBox="0 0 12 12" fill="none" xmlns="http://www.w3.org/2000/svg">
<path d="M12 6.04C12 4.94667 11.7333 3.94 11.2 3.02C10.6667 2.1 9.94 1.36667 9.02 0.820001C8.1 0.273334 7.09333 0 6 0C4.90667 0 3.9 0.273334 2.98 0.820001C2.06 1.36667 1.33333 2.1 0.8 3.02C0.266667 3.94 0 4.94667 0 6.04C0 7.02667 0.22 7.94667 0.66 8.8C1.1 9.65333 1.70667 10.36 2.48 10.92C3.25333 11.48 4.12 11.84 5.08 12V7.8H3.52V6.04H5.08V4.72C5.08 3.97333 5.28 3.39333 5.68 2.98C6.08 2.56667 6.62667 2.36 7.32 2.36C7.58667 2.36 7.89333 2.37333 8.24 2.4L8.68 2.48V3.96H7.92C7.57333 3.96 7.32 4.04667 7.16 4.22C7 4.39333 6.92 4.62667 6.92 4.92V6.04H8.6L8.32 7.8H6.92V12C7.88 11.84 8.74667 11.48 9.52 10.92C10.2933 10.36 10.9 9.65333 11.34 8.8C11.78 7.94667 12 7.02667 12 6.04Z" fill="#F7FAFF"/>
</svg>
