<svg width="128" height="59" viewBox="0 0 128 59" fill="none" xmlns="http://www.w3.org/2000/svg">
<g opacity="0.3">
<circle cx="124" cy="4" r="4" transform="rotate(90 124 4)" fill="#53BC9E"/>
<circle cx="104" cy="4" r="4" transform="rotate(90 104 4)" fill="#53BC9E"/>
<circle cx="84" cy="4" r="4" transform="rotate(90 84 4)" fill="#53BC9E"/>
<circle cx="64" cy="4" r="4" transform="rotate(90 64 4)" fill="#53BC9E"/>
<circle cx="44" cy="4" r="4" transform="rotate(90 44 4)" fill="#53BC9E"/>
<circle cx="24" cy="4" r="4" transform="rotate(90 24 4)" fill="#53BC9E"/>
<circle cx="4" cy="4" r="4" transform="rotate(90 4 4)" fill="#53BC9E"/>
<circle cx="124" cy="21" r="4" transform="rotate(90 124 21)" fill="#53BC9E"/>
<circle cx="104" cy="21" r="4" transform="rotate(90 104 21)" fill="#53BC9E"/>
<circle cx="84" cy="21" r="4" transform="rotate(90 84 21)" fill="#53BC9E"/>
<circle cx="64" cy="21" r="4" transform="rotate(90 64 21)" fill="#53BC9E"/>
<circle cx="44" cy="21" r="4" transform="rotate(90 44 21)" fill="#53BC9E"/>
<circle cx="24" cy="21" r="4" transform="rotate(90 24 21)" fill="#53BC9E"/>
<circle cx="4" cy="21" r="4" transform="rotate(90 4 21)" fill="#53BC9E"/>
<circle cx="124" cy="38" r="4" transform="rotate(90 124 38)" fill="#53BC9E"/>
<circle cx="104" cy="38" r="4" transform="rotate(90 104 38)" fill="#53BC9E"/>
<circle cx="84" cy="38" r="4" transform="rotate(90 84 38)" fill="#53BC9E"/>
<circle cx="64" cy="38" r="4" transform="rotate(90 64 38)" fill="#53BC9E"/>
<circle cx="44" cy="38" r="4" transform="rotate(90 44 38)" fill="#53BC9E"/>
<circle cx="24" cy="38" r="4" transform="rotate(90 24 38)" fill="#53BC9E"/>
<circle cx="4" cy="38" r="4" transform="rotate(90 4 38)" fill="#53BC9E"/>
<circle cx="124" cy="55" r="4" transform="rotate(90 124 55)" fill="#53BC9E"/>
<circle cx="104" cy="55" r="4" transform="rotate(90 104 55)" fill="#53BC9E"/>
<circle cx="84" cy="55" r="4" transform="rotate(90 84 55)" fill="#53BC9E"/>
<circle cx="64" cy="55" r="4" transform="rotate(90 64 55)" fill="#53BC9E"/>
<circle cx="44" cy="55" r="4" transform="rotate(90 44 55)" fill="#53BC9E"/>
<circle cx="24" cy="55" r="4" transform="rotate(90 24 55)" fill="#53BC9E"/>
<circle cx="4" cy="55" r="4" transform="rotate(90 4 55)" fill="#53BC9E"/>
</g>
</svg>
