<svg width="43" height="43" viewBox="0 0 43 43" fill="none" xmlns="http://www.w3.org/2000/svg">
<path d="M12.5802 3.89707C12.2883 1.96904 12.8453 0.729072 14.2132 0.198838C14.6424 0.025625 15.1084 -0.0358836 15.5678 0.0200673C16.0273 0.0760182 16.465 0.247602 16.84 0.518759C17.215 0.789916 17.5152 1.15178 17.7123 1.5705C17.9094 1.98922 17.9971 2.45111 17.9671 2.91294C17.9403 3.45245 18.1074 3.68147 18.5314 3.92492C20.479 5.04453 22.4153 6.18375 24.3403 7.34256C24.7776 7.60458 25.0985 7.70258 25.5905 7.36732C26.489 6.75456 27.5031 6.75662 28.414 7.34978C28.8761 7.651 29.166 7.56951 29.5724 7.31058C31.309 6.20403 33.0578 5.11434 34.8191 4.04149C35.2317 3.78978 35.4092 3.53498 35.371 3.0099C35.2678 1.63171 36.0663 0.519661 37.298 0.144164C37.8834 -0.039433 38.5132 -0.0236689 39.0888 0.188984C39.6643 0.401637 40.1531 0.799169 40.4785 1.31932C40.8039 1.83948 40.9476 2.45287 40.8871 3.06345C40.8266 3.67402 40.5653 4.24728 40.1441 4.69345C39.2157 5.67655 37.9324 5.81478 36.6264 5.15251C36.4749 5.08857 36.3115 5.0577 36.1472 5.06197C35.9828 5.06624 35.8212 5.10555 35.6732 5.17726C33.8528 6.26593 32.0538 7.39001 30.276 8.54951C30.015 8.71973 29.7911 9.16846 29.7922 9.47794C29.7973 11.2007 28.6574 12.4974 27.0409 12.5087C25.4606 12.5211 24.235 11.2708 24.2815 9.60998C24.2959 9.09419 24.1494 8.82907 23.7141 8.5784C21.7386 7.44366 19.7941 6.2594 17.8093 5.14219C17.6459 5.06722 17.4684 5.02781 17.2886 5.02657C17.1088 5.02532 16.9308 5.06227 16.7664 5.13497C15.8379 5.62497 14.9601 5.69718 13.9811 5.28661C13.8106 5.23115 13.6301 5.21322 13.4521 5.23406C13.274 5.25489 13.1026 5.31399 12.9495 5.40731C11.1504 6.69988 9.40497 8.06879 7.60589 9.36343C7.02098 9.78329 6.75277 10.1619 6.85077 10.9521C7.02924 12.386 5.9894 13.628 4.63287 13.8467C3.17111 14.0819 1.80014 13.2339 1.43496 11.8702C1.06255 10.4652 1.76919 8.95596 3.15254 8.55674C3.83633 8.38208 4.55583 8.40677 5.22603 8.62791C5.77689 8.8105 6.09359 8.78884 6.53717 8.44636C8.54463 6.90104 10.5769 5.39906 12.5802 3.89707Z" fill="#53BC9E"/>
<path d="M40.84 32.5688H35.3994V10.4991H40.84V32.5688Z" fill="#53BC9E"/>
<path d="M13.2352 10.4694H18.6355C18.6531 10.8077 18.682 11.11 18.683 11.4122C18.683 15.7449 18.6706 20.0858 18.6995 24.4236C18.6995 25.0972 18.5695 25.4552 17.8649 25.71C15.972 26.397 14.5113 27.6927 13.2352 29.5268V10.4694Z" fill="#53BC9E"/>
<path d="M7.5392 32.5678H2.09862V17.4344H7.5392V32.5678Z" fill="#53BC9E"/>
<path d="M26.6704 39.344L27.6081 40.1796C25.6842 42.8452 21.367 43.7809 18.0556 42.2944C14.4513 40.6758 12.4686 36.6867 13.364 32.8544C14.2924 28.8817 17.7276 26.2646 21.8591 26.3853C25.9906 26.506 29.0389 29.4945 29.8353 34.2697L31.8572 34.3801L29.1039 38.0494L26.3609 34.3904L28.3075 34.2759C28.3168 31.3524 25.9648 28.5733 22.9866 27.9234C21.4336 27.5737 19.8076 27.7682 18.3809 28.4743C16.9543 29.1805 15.8135 30.3555 15.1499 31.8024C14.4862 33.2493 14.3398 34.8804 14.7353 36.4223C15.1307 37.9643 16.044 39.3236 17.3222 40.2725C19.6226 41.9973 23.5529 42.4543 26.6704 39.344Z" fill="#53BC9E"/>
<path d="M29.7188 29.546C28.3324 27.5623 26.7087 26.2666 24.6641 25.5063C24.4794 25.4372 24.2751 25.1122 24.272 24.9039C24.2452 22.4425 24.2545 19.9801 24.2545 17.4404H29.7219L29.7188 29.546Z" fill="#53BC9E"/>
<path d="M11.7044 34.067V35.3389H0V34.067H11.7044Z" fill="#53BC9E"/>
<path d="M33.2931 35.3381V34.0858H42.9364V35.3381H33.2931Z" fill="#53BC9E"/>
<path d="M18.4006 36.204C18.6471 36.0534 18.8132 35.8884 19.0113 35.8409C20.5886 35.4551 20.9579 34.4091 20.7773 32.9195C20.6587 31.9426 20.7546 30.9399 20.7546 29.8856H22.1855C22.1855 31.1565 22.0709 32.4357 22.2143 33.6859C22.399 35.2973 21.8811 36.3093 20.2956 36.7652C19.883 36.8828 19.5178 37.1417 19.0309 37.3842L18.4006 36.204Z" fill="#53BC9E"/>
</svg>
