<svg width="42" height="38" viewBox="0 0 42 38" fill="none" xmlns="http://www.w3.org/2000/svg">
<path d="M35.5385 19.7044C35.5385 14.5063 35.5385 9.30679 35.5385 4.10601C35.5385 2.56209 35.6834 2.42481 37.2766 2.42282C38.4494 2.42282 39.6202 2.42282 40.793 2.42282C41.5775 2.42282 41.9678 2.8068 42 3.57081C42 3.83542 42 4.10203 42 4.36664V35.267C42 37.0576 41.8934 37.1511 40.0487 37.1531C39.1112 37.1531 38.1738 37.1531 37.2324 37.1531C35.7317 37.1531 35.5385 36.9661 35.5385 35.5037C35.5385 30.2366 35.5385 24.9702 35.5385 19.7044Z" fill="#53BC9E"/>
<path d="M29.1 7.69016C26.2148 9.84937 23.4465 12.0086 20.591 14.0434C14.7273 18.1932 8.52331 21.8253 2.04733 24.8996C1.99214 24.9355 1.9312 24.9613 1.86726 24.9759C1.51503 25.002 1.16081 25.018 0.808582 25.0381C1.00647 24.7351 1.14499 24.3478 1.41609 24.1411C9.35141 18.0376 16.7997 11.309 23.6918 4.0179C23.8719 3.82726 24.0401 3.61656 24.2716 3.36171C23.9135 3.03462 23.5513 2.7597 23.2426 2.41655C22.7598 1.89682 22.8766 1.38109 23.5672 1.25066C25.9299 0.803164 28.3025 0.40584 30.6751 0.0185467C31.4469 -0.107875 31.5221 0.431925 31.4964 1.03193C31.4073 3.2694 31.342 5.50888 31.2253 7.74435C31.2094 8.06542 31.0274 8.54703 30.7978 8.64134C30.5683 8.73566 30.1547 8.50087 29.8638 8.33432C29.5898 8.14449 29.334 7.92881 29.1 7.69016Z" fill="#53BC9E"/>
<path d="M26.6564 24.6251C26.6564 20.9763 26.6564 17.3276 26.6564 13.6788C26.6564 12.2832 26.8233 12.1268 28.2892 12.1151C29.4958 12.1151 30.7023 12.1151 31.9088 12.1151C32.7494 12.1151 33.1154 12.4943 33.1154 13.3113C33.1073 20.8617 33.1073 28.4126 33.1154 35.9643C33.1154 36.8028 32.7132 37.1508 31.9088 37.1488C30.6359 37.1488 29.363 37.1586 28.0881 37.1488C26.962 37.1371 26.6684 36.8497 26.6664 35.7453C26.6544 32.0432 26.651 28.3364 26.6564 24.6251Z" fill="#53BC9E"/>
<path d="M24.2263 27.8634C24.2263 30.4932 24.2263 33.123 24.2263 35.7407C24.2263 36.8614 23.9768 37.1265 22.8862 37.1406C21.6487 37.1588 20.4092 37.1568 19.1697 37.1406C18.0771 37.1265 17.7834 36.8412 17.7813 35.7731C17.7813 30.4871 17.7813 25.2032 17.7693 19.9172C17.7693 18.9806 18.1093 18.5517 19.0691 18.578C20.3388 18.6165 21.6125 18.578 22.8922 18.5902C23.9768 18.5902 24.2283 18.8592 24.2303 19.984C24.2323 22.6199 24.2263 25.2376 24.2263 27.8634Z" fill="#53BC9E"/>
<path d="M8.90059 31.5048C8.90059 30.0738 8.93071 28.6428 8.88854 27.2261C8.86242 26.2795 9.22597 25.8318 10.168 25.8461C11.4695 25.8666 12.7791 25.8461 14.0725 25.8461C14.9463 25.8461 15.348 26.2755 15.346 27.1647C15.3352 30.0513 15.3352 32.9393 15.346 35.8286C15.346 36.7158 14.9824 37.1594 14.0966 37.1533C12.761 37.1533 11.4253 37.1533 10.0896 37.1533C9.26413 37.1533 8.88451 36.7444 8.88451 35.8878C8.91665 34.4282 8.90059 32.9665 8.90059 31.5048Z" fill="#53BC9E"/>
<path d="M6.46124 33.6037C6.46124 34.3839 6.45118 35.1662 6.46124 35.9464C6.4713 36.7266 6.10911 37.1514 5.32031 37.1535H1.20733C0.368237 37.1535 0 36.7041 0 35.8769C0 34.2797 0 32.6846 0 31.0894C0 30.3112 0.34409 29.8803 1.15099 29.8844C2.52333 29.8925 3.89499 29.8925 5.26598 29.8844C6.05075 29.8844 6.44715 30.2643 6.45319 31.0567C6.46526 31.9064 6.45923 32.754 6.46124 33.6037Z" fill="#53BC9E"/>
</svg>
