<svg width="190" height="168" viewBox="0 0 190 168" fill="none" xmlns="http://www.w3.org/2000/svg">
<g clip-path="url(#clip0_418_308)">
<g clip-path="url(#clip1_418_308)">
<g clip-path="url(#clip2_418_308)">
<path opacity="0.1" d="M86.7938 123.84C86.7938 136.853 82.9305 147.426 75.2038 155.56C67.4772 163.286 57.1072 167.15 44.0938 167.15C27.8271 167.15 16.4405 162.066 9.93383 151.9C3.42716 141.326 0.173828 128.516 0.173828 113.47C0.173828 102.083 2.61383 89.2735 7.49383 75.0401C12.3738 60.4001 18.6771 46.3701 26.4038 32.9501C34.1305 19.5302 42.0605 8.75347 50.1938 0.620117L61.1738 4.28014C54.2605 15.6668 47.9571 29.9002 42.2638 46.9801C36.5705 64.0601 33.9272 79.5135 34.3338 93.3401V95.1701C36.3671 92.3235 39.0105 90.4935 42.2638 89.6801C45.9238 88.8668 49.1772 88.4602 52.0238 88.4602C61.3772 88.4602 69.5105 92.1202 76.4238 99.4402C83.3372 106.76 86.7938 114.893 86.7938 123.84ZM189.884 123.84C189.884 136.853 186.021 147.426 178.294 155.56C170.568 163.286 160.198 167.15 147.184 167.15C130.918 167.15 119.531 162.066 113.024 151.9C106.518 141.326 103.264 128.516 103.264 113.47C103.264 102.083 105.704 89.2735 110.584 75.0401C115.464 60.4001 121.768 46.3701 129.494 32.9501C137.221 19.5302 145.151 8.75347 153.284 0.620117L164.264 4.28014C157.351 15.6668 151.048 29.9002 145.354 46.9801C139.661 64.0601 137.018 79.5135 137.424 93.3401V95.1701C139.458 92.3235 142.101 90.4935 145.354 89.6801C149.014 88.8668 152.268 88.4602 155.114 88.4602C164.468 88.4602 172.601 92.1202 179.514 99.4402C186.428 106.76 189.884 114.893 189.884 123.84Z" fill="#928EDB"/>
</g>
</g>
</g>
<defs>
<clipPath id="clip0_418_308">
<rect width="190" height="168" fill="white"/>
</clipPath>
<clipPath id="clip1_418_308">
<rect width="190" height="168" fill="white"/>
</clipPath>
<clipPath id="clip2_418_308">
<rect width="190" height="168" fill="white"/>
</clipPath>
</defs>
</svg>
