<svg width="12" height="10" viewBox="0 0 12 10" fill="none" xmlns="http://www.w3.org/2000/svg">
<path d="M3.76 9.73633C5.2 9.73633 6.48 9.37633 7.6 8.65633C8.61333 7.98966 9.4 7.10966 9.96 6.01633C10.4933 4.94966 10.76 3.85633 10.76 2.73633V2.41633C11.24 2.06966 11.6533 1.643 12 1.13633C11.5467 1.34966 11.08 1.483 10.6 1.53633C11.1333 1.21633 11.4933 0.762996 11.68 0.17633C11.1733 0.469663 10.6533 0.669662 10.12 0.776329C9.72 0.376329 9.24667 0.129663 8.7 0.0363293C8.15333 -0.057004 7.63333 0.0296621 7.14 0.296329C6.64667 0.562996 6.28667 0.949662 6.06 1.45633C5.83333 1.963 5.78667 2.483 5.92 3.01633C4.93333 2.963 3.99333 2.71633 3.1 2.27633C2.20667 1.83633 1.45333 1.22966 0.84 0.456329C0.52 1.01633 0.433333 1.60966 0.58 2.23633C0.726667 2.863 1.06667 3.363 1.6 3.73633C1.2 3.70966 0.826667 3.603 0.48 3.41633V3.45633C0.48 4.043 0.666667 4.563 1.04 5.01633C1.41333 5.46966 1.88 5.74966 2.44 5.85633C2.22667 5.93633 2.01333 5.97633 1.8 5.97633C1.64 5.97633 1.49333 5.963 1.36 5.93633C1.52 6.41633 1.80667 6.81633 2.22 7.13633C2.63333 7.45633 3.10667 7.61633 3.64 7.61633C3.21333 7.963 2.73333 8.22966 2.2 8.41633C1.66667 8.60299 1.13333 8.69633 0.6 8.69633C0.386667 8.69633 0.186667 8.68299 0 8.65633C1.14667 9.37633 2.4 9.73633 3.76 9.73633Z" fill="#F7FAFF"/>
</svg>
