<svg width="37" height="44" viewBox="0 0 37 44" fill="none" xmlns="http://www.w3.org/2000/svg">
<path d="M34.0452 44.0002H2.32127C2.29026 43.9846 2.25769 43.9724 2.22412 43.9636C0.842535 43.7423 0.00473055 42.7661 0.00473055 41.3743C0.00358425 31.4946 0.00200806 21.6145 2.02662e-06 11.7339C2.02662e-06 8.66253 2.02662e-06 5.59097 2.02662e-06 2.51927C-0.000748297 1.93076 0.20687 1.36098 0.586091 0.910819C0.965312 0.460657 1.49167 0.159163 2.07194 0.0597268C2.19704 0.0382423 2.32256 0.0197657 2.44808 0H34.2171C34.3336 0.0283595 34.4501 0.058008 34.5671 0.0859378C35.1147 0.216338 35.6027 0.527009 35.9524 0.968023C36.3021 1.40904 36.4934 1.95478 36.4954 2.51755C36.5062 6.82045 36.5277 11.1229 36.5294 15.4254C36.532 20.659 36.5262 25.8925 36.5122 31.1258C36.5073 34.5983 36.5014 38.0705 36.4946 41.5423C36.492 42.6866 35.5527 43.7767 34.4248 43.9452C34.2971 43.9641 34.1712 43.9817 34.0452 44.0002ZM1.61844 22.0203H1.62188C1.62188 28.4083 1.62188 34.7955 1.62188 41.1818C1.6195 41.3036 1.62338 41.4253 1.63348 41.5466C1.67432 41.951 1.93826 42.2543 2.33588 42.3398C2.46967 42.3632 2.60552 42.3725 2.74124 42.3678C13.0783 42.3678 23.4151 42.3678 33.7516 42.3678C33.8161 42.3678 33.8806 42.3678 33.945 42.3678C34.3655 42.3596 34.7093 42.1121 34.819 41.7056C34.8649 41.5184 34.8863 41.326 34.8826 41.1333C34.8826 38.4555 34.8744 35.7772 34.874 33.0981C34.8723 23.6535 34.8723 14.2088 34.874 4.76396C34.874 4.01201 34.8761 3.26005 34.8658 2.50852C34.8648 2.30227 34.7914 2.10292 34.6584 1.94523C34.5254 1.78755 34.3413 1.68154 34.1381 1.64571C34.0242 1.62908 33.9091 1.62333 33.7942 1.62852C24.2512 1.62852 14.7095 1.62852 5.16911 1.62852C4.2952 1.62852 3.42129 1.62852 2.54694 1.6311C2.31934 1.62827 2.09901 1.71117 1.92976 1.86331C1.76051 2.01546 1.65474 2.2257 1.63348 2.45224C1.61865 2.58735 1.61176 2.72323 1.61285 2.85915C1.61285 3.74001 1.62016 4.62088 1.62016 5.50131C1.61958 11.0079 1.61901 16.5142 1.61844 22.0203Z" fill="#6C67D4"/>
<path d="M23.2301 39.3192C23.7259 38.2761 24.2078 37.2626 24.6894 36.2487C25.1623 35.2542 25.6301 34.257 26.1082 33.2655C26.2213 33.0342 26.2787 32.7797 26.2759 32.5223C26.2724 30.3664 26.2789 28.2105 26.272 26.0546C26.272 25.8419 26.3189 25.768 26.542 25.777C28.7627 25.8677 30.5694 26.7939 31.9112 28.5458C35.1264 32.7432 32.9053 38.7601 27.7347 39.8926C26.2729 40.2115 24.8441 40.0808 23.4756 39.4456C23.4008 39.4082 23.3264 39.3678 23.2301 39.3192Z" fill="#6C67D4"/>
<path d="M18.0932 33.2463H25.1206L22.094 39.5672C20.0113 38.9996 17.7639 35.454 18.0932 33.2463Z" fill="#6C67D4"/>
<path d="M26.6413 20.0303C24.9724 20.0303 23.3046 20.0303 21.638 20.0303C21.5017 20.0311 21.3655 20.0216 21.2306 20.0018C20.7126 19.9232 20.3565 19.4851 20.3591 18.9456C20.3635 18.6999 20.4535 18.4636 20.6133 18.2786C20.7731 18.0937 20.9924 17.9719 21.2323 17.9349C21.36 17.9147 21.4889 17.9044 21.6181 17.9038C24.9752 17.8986 28.3323 17.896 31.6894 17.896C32.2842 17.896 32.6653 18.1294 32.8453 18.5955C33.1193 19.3076 32.5967 20.0263 31.7956 20.0281C30.3216 20.032 28.8481 20.0281 27.3746 20.0281L26.6413 20.0303Z" fill="#4C4C4C"/>
<path d="M10.2706 24.9585C11.9849 24.9585 13.6991 24.9585 15.4133 24.9585C16.033 24.9585 16.4941 25.4107 16.4997 26.0092C16.5015 26.2557 16.4183 26.4949 16.2646 26.6852C16.1109 26.8754 15.8965 27.0045 15.6589 27.0499C15.5252 27.0726 15.3898 27.0836 15.2543 27.0827C12.0259 27.0871 8.79739 27.0894 5.56892 27.0897C5.36921 27.0887 5.16972 27.0758 4.97151 27.0508C4.40796 26.9822 4.00426 26.5313 4.02268 26.0022C4.03283 25.726 4.14637 25.4642 4.33997 25.2706C4.53357 25.0771 4.79254 24.9665 5.06365 24.9615C5.42064 24.9497 5.77806 24.9585 6.13504 24.9585H10.2706Z" fill="#4C4C4C"/>
<path d="M10.2315 37.9271C11.9677 37.9271 13.7057 37.9245 15.4407 37.9271C15.9442 37.9271 16.2642 38.1473 16.4272 38.5711C16.5057 38.7685 16.5209 38.9855 16.4707 39.192C16.4206 39.3984 16.3074 39.5842 16.1471 39.7234C15.9669 39.8909 15.729 39.9821 15.4831 39.978C12.0035 39.978 8.52354 39.978 5.04333 39.978C4.45314 39.978 4.02122 39.5246 4.02208 38.9343C4.02208 38.3508 4.44585 37.9296 5.04504 37.9288C6.77414 37.9262 8.5041 37.9262 10.2349 37.9288L10.2315 37.9271Z" fill="#4C4C4C"/>
<path d="M10.2596 33.4915C8.53738 33.4915 6.81531 33.4915 5.09339 33.4915C4.35621 33.4915 3.87248 32.8701 4.06418 32.1818C4.18211 31.7535 4.58821 31.4464 5.05651 31.4425C5.61399 31.4383 6.17148 31.4425 6.72897 31.4425C9.62992 31.4425 12.5317 31.4434 15.4344 31.4451C16.172 31.4451 16.645 32.0546 16.4593 32.7566C16.3439 33.1943 15.9726 33.4813 15.494 33.4898C15.0797 33.4967 14.665 33.4898 14.2504 33.4898H10.2622L10.2596 33.4915Z" fill="#4C4C4C"/>
<path d="M26.6796 5.00869C28.3694 5.00869 30.0592 5.00955 31.749 5.01126C31.9061 5.0081 32.0627 5.02812 32.2139 5.07066C32.7053 5.22367 32.9807 5.68014 32.9055 6.18533C32.8741 6.4245 32.7567 6.64428 32.5751 6.80408C32.3935 6.96387 32.1599 7.05288 31.9174 7.05466C31.4595 7.06321 31.0011 7.05808 30.5427 7.05808C27.5431 7.05808 24.5434 7.05808 21.5436 7.05808C20.9104 7.05808 20.5216 6.74565 20.4507 6.19729C20.3647 5.52414 20.8124 5.01339 21.5041 5.01211C23.2291 5.00727 24.9543 5.00613 26.6796 5.00869Z" fill="#4C4C4C"/>
<path d="M26.5994 11.5C28.3081 11.5 30.0167 11.5145 31.725 11.4927C32.3497 11.4846 32.8406 12.0377 32.8368 12.5065C32.8338 13.0796 32.3506 13.5449 31.734 13.5449C28.3098 13.5449 24.8856 13.5435 21.4614 13.5406C20.9581 13.5406 20.583 13.2948 20.4213 12.8678C20.3508 12.6764 20.34 12.4684 20.3902 12.2708C20.4404 12.0732 20.5493 11.8952 20.7027 11.7599C20.9096 11.5741 21.155 11.5021 21.4322 11.5042C23.1552 11.5065 24.878 11.5065 26.6007 11.5042L26.5994 11.5Z" fill="#4C4C4C"/>
<path d="M5.06332 18.4969H5.34301C9.30175 18.4994 13.2605 18.503 17.2192 18.5076C17.3691 18.5069 17.5185 18.5245 17.6642 18.56C17.8556 18.608 17.9723 18.7423 17.977 18.9462C17.9809 19.1328 17.8272 19.3066 17.6229 19.3508C17.5378 19.3673 17.4513 19.3747 17.3647 19.3727C13.2275 19.3727 9.09033 19.3727 4.95316 19.3727C4.29395 19.3727 4.1868 19.2667 4.18637 18.6187C4.18637 14.5139 4.18637 10.4085 4.18637 6.30252C4.18397 6.18117 4.19217 6.05983 4.2109 5.9399C4.2479 5.7292 4.40927 5.58501 4.6072 5.582C4.80514 5.579 4.95144 5.69014 5.01427 5.87339C5.04935 5.98186 5.06593 6.09545 5.06332 6.2094C5.06533 10.2147 5.06533 14.2199 5.06332 18.2252V18.4969Z" fill="#6C67D4"/>
<path d="M17.0155 8.45535C17.146 8.79985 17.2122 17.4611 17.0982 18.142H15.4372V17.9064C15.4372 15.7977 15.4358 13.6888 15.4329 11.5796C15.4292 11.2632 15.516 10.9523 15.6832 10.6826C16.0906 10.0134 16.4832 9.33599 16.8827 8.66205C16.9214 8.5966 16.9645 8.53415 17.0155 8.45535Z" fill="#6C67D4"/>
<path d="M17.3118 7.86389L17.1013 7.5905C17.0244 7.70804 16.951 7.81007 16.8874 7.91771C15.9891 9.44496 15.0917 10.9726 14.1952 12.5008C14.1298 12.6121 14.0629 12.7226 13.9946 12.8323C13.8862 13.0045 13.7384 13.0708 13.5344 13.0045C12.9869 12.8323 12.4372 12.6622 11.8888 12.4878C11.5707 12.3875 11.5513 12.3944 11.4108 12.6902L10.257 15.1184C10.2449 15.1443 10.2315 15.1697 10.219 15.1955C10.0115 15.617 9.92728 15.6514 9.49902 15.4736C9.01459 15.2726 8.53188 15.0672 8.04874 14.8635L7.24927 14.5277C6.6326 15.7461 6.02284 16.9581 5.38326 18.2239C5.31196 17.4412 5.26917 16.7502 5.68015 16.0828C6.06908 15.4499 6.36337 14.7585 6.70044 14.0933C6.90053 13.6989 6.98782 13.6667 7.39447 13.8389C8.02829 14.1081 8.66296 14.3783 9.29851 14.6496C9.40352 14.6926 9.51112 14.7357 9.63688 14.7835C9.6762 14.7077 9.7138 14.641 9.74664 14.5721C10.1621 13.7058 10.5771 12.8395 10.9917 11.9729C11.1671 11.607 11.2358 11.5768 11.6325 11.7004C12.1744 11.8692 12.7176 12.0341 13.2557 12.2145C13.4506 12.2799 13.5603 12.2312 13.661 12.0586C14.5541 10.5285 15.4514 9.00036 16.3529 7.47426C16.3991 7.39547 16.4345 7.30979 16.4847 7.20732L16.1424 7.16427L17.5685 6.07458C17.4816 6.68896 17.4008 7.24952 17.3118 7.86389Z" fill="#6C67D4"/>
<path d="M18.4871 32.0975C18.2231 28.7739 21.3583 24.9024 25.4492 25.0414V32.0975H18.4871ZM25.0166 25.4353C24.7433 25.4717 24.4849 25.4932 24.2311 25.5417C21.1867 26.123 19.1129 28.7469 18.8728 31.4192C18.8489 31.6839 18.8753 31.7268 19.1363 31.7268C21.0096 31.7268 22.8828 31.7256 24.7561 31.723C24.8446 31.723 24.9328 31.7058 25.0188 31.6968L25.0166 25.4353Z" fill="#6C67D4"/>
<path d="M13.1344 13.3484C13.2267 13.3702 13.3061 13.3822 13.3774 13.4067C13.7692 13.5375 14.0752 13.4281 14.3079 13.0902C14.4242 12.9213 14.5495 12.7588 14.6942 12.5599V18.142H13.1344V13.3484Z" fill="#6C67D4"/>
<path d="M12.2925 18.1422H10.6781C10.6781 17.9046 10.6781 17.6793 10.6781 17.4539C10.6781 16.9003 10.6666 16.3466 10.6759 15.7929C10.6827 15.361 10.8115 14.9581 11.0046 14.5718C11.2388 14.1033 11.4594 13.6288 11.6843 13.1556C11.7385 13.041 11.7932 12.9205 11.9477 12.9921C12.0913 13.0585 12.3154 13.0155 12.3141 13.2902C12.3065 14.8516 12.3077 16.4134 12.3056 17.9753C12.3056 18.0225 12.2984 18.0715 12.2925 18.1422Z" fill="#6C67D4"/>
<path d="M8.21002 18.1422V15.4333C8.35554 15.4877 8.48685 15.534 8.61601 15.5855C8.98024 15.7304 9.34576 15.8733 9.70697 16.0268C9.76596 16.0518 9.84431 16.1258 9.84518 16.1785C9.85465 16.8273 9.8512 17.4765 9.8512 18.1422H8.21002Z" fill="#6C67D4"/>
<path d="M7.3893 18.1417H5.91169C6.40065 17.1643 6.88016 16.2045 7.3893 15.1865V18.1417Z" fill="#6C67D4"/>
</svg>
