<svg width="116" height="59" viewBox="0 0 116 59" fill="none" xmlns="http://www.w3.org/2000/svg">
<circle cx="112" cy="4" r="4" transform="rotate(90 112 4)" fill="#53BC9E"/>
<circle cx="94" cy="4" r="4" transform="rotate(90 94 4)" fill="#53BC9E"/>
<circle cx="76" cy="4" r="4" transform="rotate(90 76 4)" fill="#53BC9E"/>
<circle cx="58" cy="4" r="4" transform="rotate(90 58 4)" fill="#53BC9E"/>
<circle cx="40" cy="4" r="4" transform="rotate(90 40 4)" fill="#53BC9E"/>
<circle cx="22" cy="4" r="4" transform="rotate(90 22 4)" fill="#53BC9E"/>
<circle cx="4" cy="4" r="4" transform="rotate(90 4 4)" fill="#53BC9E"/>
<circle cx="112" cy="21" r="4" transform="rotate(90 112 21)" fill="#53BC9E"/>
<circle cx="94" cy="21" r="4" transform="rotate(90 94 21)" fill="#53BC9E"/>
<circle cx="76" cy="21" r="4" transform="rotate(90 76 21)" fill="#53BC9E"/>
<circle cx="58" cy="21" r="4" transform="rotate(90 58 21)" fill="#53BC9E"/>
<circle cx="40" cy="21" r="4" transform="rotate(90 40 21)" fill="#53BC9E"/>
<circle cx="22" cy="21" r="4" transform="rotate(90 22 21)" fill="#53BC9E"/>
<circle cx="4" cy="21" r="4" transform="rotate(90 4 21)" fill="#53BC9E"/>
<circle cx="112" cy="38" r="4" transform="rotate(90 112 38)" fill="#53BC9E"/>
<circle cx="94" cy="38" r="4" transform="rotate(90 94 38)" fill="#53BC9E"/>
<circle cx="76" cy="38" r="4" transform="rotate(90 76 38)" fill="#53BC9E"/>
<circle cx="58" cy="38" r="4" transform="rotate(90 58 38)" fill="#53BC9E"/>
<circle cx="40" cy="38" r="4" transform="rotate(90 40 38)" fill="#53BC9E"/>
<circle cx="22" cy="38" r="4" transform="rotate(90 22 38)" fill="#53BC9E"/>
<circle cx="4" cy="38" r="4" transform="rotate(90 4 38)" fill="#53BC9E"/>
<circle cx="112" cy="55" r="4" transform="rotate(90 112 55)" fill="#53BC9E"/>
<circle cx="94" cy="55" r="4" transform="rotate(90 94 55)" fill="#53BC9E"/>
<circle cx="76" cy="55" r="4" transform="rotate(90 76 55)" fill="#53BC9E"/>
<circle cx="58" cy="55" r="4" transform="rotate(90 58 55)" fill="#53BC9E"/>
<circle cx="40" cy="55" r="4" transform="rotate(90 40 55)" fill="#53BC9E"/>
<circle cx="22" cy="55" r="4" transform="rotate(90 22 55)" fill="#53BC9E"/>
<circle cx="4" cy="55" r="4" transform="rotate(90 4 55)" fill="#53BC9E"/>
</svg>
