<svg width="59" height="128" viewBox="0 0 59 128" fill="none" xmlns="http://www.w3.org/2000/svg">
<g opacity="0.3">
<circle cx="55" cy="124" r="4" transform="rotate(-180 55 124)" fill="#928EDB"/>
<circle cx="55" cy="104" r="4" transform="rotate(-180 55 104)" fill="#928EDB"/>
<circle cx="55" cy="84" r="4" transform="rotate(-180 55 84)" fill="#928EDB"/>
<circle cx="55" cy="64" r="4" transform="rotate(-180 55 64)" fill="#928EDB"/>
<circle cx="55" cy="44" r="4" transform="rotate(-180 55 44)" fill="#928EDB"/>
<circle cx="55" cy="24" r="4" transform="rotate(-180 55 24)" fill="#928EDB"/>
<circle cx="55" cy="4" r="4" transform="rotate(-180 55 4)" fill="#928EDB"/>
<circle cx="38" cy="124" r="4" transform="rotate(-180 38 124)" fill="#928EDB"/>
<circle cx="38" cy="104" r="4" transform="rotate(-180 38 104)" fill="#928EDB"/>
<circle cx="38" cy="84" r="4" transform="rotate(-180 38 84)" fill="#928EDB"/>
<circle cx="38" cy="64" r="4" transform="rotate(-180 38 64)" fill="#928EDB"/>
<circle cx="38" cy="44" r="4" transform="rotate(-180 38 44)" fill="#928EDB"/>
<circle cx="38" cy="24" r="4" transform="rotate(-180 38 24)" fill="#928EDB"/>
<circle cx="38" cy="4" r="4" transform="rotate(-180 38 4)" fill="#928EDB"/>
<circle cx="21" cy="124" r="4" transform="rotate(-180 21 124)" fill="#928EDB"/>
<circle cx="21" cy="104" r="4" transform="rotate(-180 21 104)" fill="#928EDB"/>
<circle cx="21" cy="84" r="4" transform="rotate(-180 21 84)" fill="#928EDB"/>
<circle cx="21" cy="64" r="4" transform="rotate(-180 21 64)" fill="#928EDB"/>
<circle cx="21" cy="44" r="4" transform="rotate(-180 21 44)" fill="#928EDB"/>
<circle cx="21" cy="24" r="4" transform="rotate(-180 21 24)" fill="#928EDB"/>
<circle cx="21" cy="4" r="4" transform="rotate(-180 21 4)" fill="#928EDB"/>
<circle cx="4" cy="124" r="4" transform="rotate(-180 4 124)" fill="#928EDB"/>
<circle cx="4" cy="104" r="4" transform="rotate(-180 4 104)" fill="#928EDB"/>
<circle cx="4" cy="84" r="4" transform="rotate(-180 4 84)" fill="#928EDB"/>
<circle cx="4" cy="64" r="4" transform="rotate(-180 4 64)" fill="#928EDB"/>
<circle cx="4" cy="44" r="4" transform="rotate(-180 4 44)" fill="#928EDB"/>
<circle cx="4" cy="24" r="4" transform="rotate(-180 4 24)" fill="#928EDB"/>
<circle cx="4" cy="4" r="4" transform="rotate(-180 4 4)" fill="#928EDB"/>
</g>
</svg>
