<svg width="24" height="23" viewBox="0 0 24 23" fill="none" xmlns="http://www.w3.org/2000/svg">
<path d="M17.4304 14.6612L22.6272 19.6618L23.2318 19.0684C24.0204 18.3016 24.0167 16.9653 23.2239 16.2027L21.0023 14.0655C20.6045 13.6829 20.0772 13.4734 19.5184 13.4749C18.9596 13.4764 18.4335 13.6885 18.0392 14.0706L17.4304 14.6612ZM9.22431 5.59215C10.0129 4.82536 10.0092 3.4891 9.21633 2.72642L6.99474 0.5893C6.59693 0.207964 6.06967 -0.00144041 5.51088 1.4133e-05C4.95208 0.00146868 4.426 0.213615 4.02893 0.599722L3.42707 1.19173L8.61406 6.18149L9.22431 5.59215ZM20.738 21.4934L21.2312 21.0138L16.0372 16.0173L15.133 16.8979C15.0683 16.961 14.9913 17.0111 14.9065 17.0454C14.8218 17.0797 14.7309 17.0975 14.639 17.0977C14.5471 17.0979 14.4561 17.0806 14.3711 17.0468C14.2862 17.013 14.209 16.9633 14.1439 16.9005L6.31928 9.37344C6.19225 9.24493 6.12114 9.07412 6.12064 8.89633C6.12015 8.71854 6.19031 8.54736 6.31662 8.41819L7.22223 7.5376L2.02546 2.54922L1.53225 3.02881C1.17001 3.38104 -0.00673885 4.71633 6.64118e-05 7.16186C0.00614227 9.34528 1.01073 12.9097 5.76349 17.483C15.2536 26.6096 20.5136 21.7115 20.738 21.4934Z" fill="#4C4C4C"/>
</svg>
