<svg width="28" height="28" viewBox="0 0 28 28" fill="none" xmlns="http://www.w3.org/2000/svg">
<path d="M28 14.0933C28 11.5422 27.3778 9.19333 26.1333 7.04667C24.8889 4.9 23.1933 3.18889 21.0467 1.91333C18.9 0.637777 16.5511 0 14 0C11.4489 0 9.1 0.637777 6.95333 1.91333C4.80667 3.18889 3.11111 4.9 1.86667 7.04667C0.622222 9.19333 0 11.5422 0 14.0933C0 16.3956 0.513333 18.5422 1.54 20.5333C2.56667 22.5244 3.98222 24.1733 5.78667 25.48C7.59111 26.7867 9.61333 27.6267 11.8533 28V18.2H8.21333V14.0933H11.8533V11.0133C11.8533 9.27111 12.32 7.91778 13.2533 6.95333C14.1867 5.98889 15.4622 5.50667 17.08 5.50667C17.7022 5.50667 18.4178 5.53778 19.2267 5.6L20.2533 5.78667V9.24H18.48C17.6711 9.24 17.08 9.44222 16.7067 9.84667C16.3333 10.2511 16.1467 10.7956 16.1467 11.48V14.0933H20.0667L19.4133 18.2H16.1467V28C18.3867 27.6267 20.4089 26.7867 22.2133 25.48C24.0178 24.1733 25.4333 22.5244 26.46 20.5333C27.4867 18.5422 28 16.3956 28 14.0933Z" fill="black"/>
</svg>
