<svg width="30" height="23" viewBox="0 0 30 23" fill="none" xmlns="http://www.w3.org/2000/svg">
<path d="M26.7532 5.74996L14.8629 12.9374L2.97258 5.74996V2.87498L14.8629 10.0624L26.7532 2.87498M26.7532 0H2.97258C1.3228 0 0 1.27937 0 2.87498V20.1249C0 20.8873 0.313181 21.6186 0.870648 22.1578C1.42812 22.6969 2.1842 22.9998 2.97258 22.9998H26.7532C27.5416 22.9998 28.2977 22.6969 28.8551 22.1578C29.4126 21.6186 29.7258 20.8873 29.7258 20.1249V2.87498C29.7258 2.11249 29.4126 1.38122 28.8551 0.842062C28.2977 0.302899 27.5416 0 26.7532 0Z" fill="black"/>
</svg>
