<svg width="24" height="23" viewBox="0 0 24 23" fill="none" xmlns="http://www.w3.org/2000/svg">
<path d="M17.4299 14.6612L22.6267 19.6618L23.2314 19.0684C24.0199 18.3016 24.0162 16.9653 23.2234 16.2027L21.0018 14.0655C20.604 13.6829 20.0767 13.4734 19.5179 13.4749C18.9591 13.4764 18.433 13.6885 18.0388 14.0706L17.4299 14.6612ZM9.22381 5.59215C10.0124 4.82536 10.0087 3.4891 9.21584 2.72642L6.99424 0.5893C6.59643 0.207964 6.06918 -0.00144041 5.51038 1.4133e-05C4.95158 0.00146868 4.4255 0.213615 4.02843 0.599722L3.42657 1.19173L8.61356 6.18149L9.22381 5.59215ZM20.7375 21.4934L21.2307 21.0138L16.0367 16.0173L15.1325 16.8979C15.0678 16.961 14.9908 17.0111 14.9061 17.0454C14.8213 17.0797 14.7304 17.0975 14.6385 17.0977C14.5466 17.0979 14.4556 17.0806 14.3706 17.0468C14.2857 17.013 14.2085 16.9633 14.1434 16.9005L6.31879 9.37344C6.19176 9.24493 6.12064 9.07412 6.12015 8.89633C6.11965 8.71854 6.18982 8.54736 6.31613 8.41819L7.22173 7.5376L2.02496 2.54922L1.53176 3.02881C1.16952 3.38104 -0.00723384 4.71633 -0.000428574 7.16186C0.00564728 9.34528 1.01023 12.9097 5.763 17.483C15.2531 26.6096 20.5132 21.7115 20.7375 21.4934Z" fill="black"/>
</svg>
