<svg width="28" height="23" viewBox="0 0 28 23" fill="none" xmlns="http://www.w3.org/2000/svg">
<path d="M8.77333 22.7183C12.1333 22.7183 15.12 21.8783 17.7333 20.1983C20.0978 18.6427 21.9333 16.5894 23.24 14.0383C24.4844 11.5494 25.1067 8.99826 25.1067 6.38493V5.63826C26.2267 4.82937 27.1911 3.83382 28 2.6516C26.9422 3.14937 25.8533 3.46049 24.7333 3.58493C25.9778 2.83826 26.8178 1.78049 27.2533 0.411596C26.0711 1.09604 24.8578 1.56271 23.6133 1.8116C22.68 0.878263 21.5756 0.302708 20.3 0.0849304C19.0244 -0.132847 17.8111 0.0693741 16.66 0.691597C15.5089 1.31382 14.6689 2.21604 14.14 3.39826C13.6111 4.58048 13.5022 5.79382 13.8133 7.03826C11.5111 6.91382 9.31778 6.33826 7.23333 5.3116C5.14889 4.28493 3.39111 2.86938 1.96 1.06493C1.21333 2.3716 1.01111 3.75604 1.35333 5.21826C1.69556 6.68048 2.48889 7.84715 3.73333 8.71826C2.8 8.65604 1.92889 8.40715 1.12 7.9716V8.06493C1.12 9.43382 1.55556 10.6472 2.42667 11.7049C3.29778 12.7627 4.38667 13.416 5.69333 13.6649C5.19556 13.8516 4.69778 13.9449 4.2 13.9449C3.82667 13.9449 3.48444 13.9138 3.17333 13.8516C3.54667 14.9716 4.21556 15.9049 5.18 16.6516C6.14444 17.3983 7.24889 17.7716 8.49333 17.7716C7.49778 18.5805 6.37778 19.2027 5.13333 19.6383C3.88889 20.0738 2.64444 20.2916 1.4 20.2916C0.902222 20.2916 0.435556 20.2605 0 20.1983C2.67556 21.8783 5.6 22.7183 8.77333 22.7183Z" fill="black"/>
</svg>
