<svg width="21" height="23" viewBox="0 0 21 23" fill="none" xmlns="http://www.w3.org/2000/svg">
<path fill-rule="evenodd" clip-rule="evenodd" d="M12.6418 1.6927C11.6642 1.20502 10.6244 0.961182 9.5222 0.961182H9.52091C7.67848 0.961182 6.07391 1.59546 4.70724 2.864C3.34055 4.13254 2.56463 5.7078 2.37946 7.58978L1.77385 13.7452C0.748511 14.2325 0.23584 15.1042 0.23584 16.3604V16.3619C0.23584 18.317 1.18798 19.2945 3.09227 19.2945H5.28991C5.42748 20.1989 5.82791 20.9916 6.49113 21.6724C7.32791 22.5316 8.33805 22.9612 9.52155 22.9612C10.7051 22.9612 11.7152 22.5316 12.552 21.6724C13.2152 20.9916 13.6156 20.1989 13.7532 19.2945H15.9508C17.8551 19.2945 18.8073 18.317 18.8073 16.3619V16.3604C18.8073 15.1042 18.2946 14.2325 17.2693 13.7452L16.9911 10.918L16.9986 10.9152C19.1568 10.1874 20.2358 8.58052 20.2358 6.09451C20.2358 4.67698 19.7477 3.46704 18.7713 2.4647C17.7951 1.46236 16.6166 0.961182 15.2358 0.961182C14.2728 0.961182 13.4081 1.20502 12.6418 1.6927ZM11.4318 2.76015C10.6345 3.70208 10.2358 4.81354 10.2358 6.09451C10.2358 7.51205 10.724 8.72198 11.7003 9.7243C12.6766 10.7267 13.8551 11.2278 15.2358 11.2278C15.3536 11.2278 15.4698 11.2242 15.5847 11.2169L15.8918 14.3391C15.9061 14.4844 15.9581 14.6138 16.0476 14.7272C16.1372 14.8406 16.2497 14.9196 16.3852 14.964C17.0476 15.1812 17.3787 15.6466 17.3787 16.3604V16.3619C17.3787 16.7667 17.2393 17.1123 16.9605 17.3985C16.6817 17.6847 16.3451 17.8278 15.9508 17.8278H3.09227C2.14036 17.8278 1.66441 17.3392 1.66441 16.3619V16.3604C1.66441 15.6466 1.99557 15.1812 2.65789 14.964C2.79338 14.9196 2.90591 14.8406 2.99548 14.7272C3.08504 14.6138 3.13697 14.4844 3.15126 14.3391L3.8008 7.73718C3.94911 6.22976 4.5706 4.96802 5.66527 3.95195C6.75998 2.93588 8.0452 2.42785 9.52091 2.42785H9.5222C10.1871 2.42785 10.8236 2.53862 11.4318 2.76015ZM13.0676 3.17647C12.9446 3.27516 12.8256 3.38359 12.7105 3.50179C12.0131 4.21775 11.6644 5.08199 11.6644 6.09451C11.6644 7.10704 12.0131 7.97126 12.7105 8.68721C13.4078 9.40317 14.2496 9.76118 15.2358 9.76118C15.4916 9.76118 15.7378 9.73713 15.9741 9.68895C16.0007 9.6792 16.0282 9.67091 16.0566 9.66409C16.206 9.62801 16.3493 9.58702 16.4865 9.54103C16.9547 9.36364 17.3796 9.07903 17.7612 8.68721C18.4586 7.97126 18.8073 7.10704 18.8073 6.09451C18.8073 6.03124 18.8059 5.96853 18.8032 5.90641C18.7623 4.97454 18.415 4.17301 17.7612 3.50179C17.0638 2.78582 16.2221 2.42785 15.2358 2.42785H15.233C14.4514 2.42843 13.7471 2.66589 13.1201 3.14021C13.1028 3.15318 13.0854 3.16527 13.0676 3.17647ZM14.3123 5.2093L14.5649 5.46858L14.8787 5.79076L15.5063 5.1464L16.5165 4.1093C16.656 3.96611 16.8243 3.89452 17.0216 3.89452C17.2188 3.89452 17.3871 3.96611 17.5266 4.1093C17.5936 4.17807 17.6452 4.25737 17.6815 4.34722C17.7177 4.43706 17.7358 4.5306 17.7358 4.62785C17.7358 4.7251 17.7177 4.81864 17.6815 4.90848C17.6452 4.99833 17.5936 5.07763 17.5266 5.1464L15.3838 7.3464C15.2443 7.48959 15.0759 7.56118 14.8787 7.56118C14.6815 7.56118 14.5131 7.48959 14.3736 7.3464L13.3022 6.2464C13.2352 6.17763 13.1836 6.09833 13.1473 6.00848C13.1111 5.91864 13.093 5.8251 13.093 5.72785C13.093 5.6306 13.1111 5.53706 13.1473 5.44722C13.1836 5.35737 13.2352 5.27807 13.3022 5.2093C13.4417 5.06611 13.6101 4.99451 13.8073 4.99451C14.0045 4.99451 14.1728 5.06611 14.3123 5.2093ZM9.52155 21.4945C7.87198 21.4945 6.9367 20.7612 6.7157 19.2945H12.3274C12.1064 20.7612 11.1711 21.4945 9.52155 21.4945Z" fill="white"/>
</svg>
