<svg width="20" height="20" viewBox="0 0 20 20" fill="none" xmlns="http://www.w3.org/2000/svg">
<g opacity="0.6" clip-path="url(#clip0_305_1743)">
<path d="M6.875 17.8125H2.34375C1.48082 17.8125 0.78125 17.1129 0.78125 16.25V3.75C0.78125 2.88707 1.48082 2.1875 2.34375 2.1875H6.875C7.73793 2.1875 8.4375 2.88707 8.4375 3.75V16.25C8.4375 17.1129 7.73793 17.8125 6.875 17.8125Z" stroke="white" stroke-width="2" stroke-miterlimit="10" stroke-linecap="round" stroke-linejoin="round"/>
<path d="M17.6562 8.4375H13.125C12.2621 8.4375 11.5625 7.73793 11.5625 6.875V3.75C11.5625 2.88707 12.2621 2.1875 13.125 2.1875H17.6562C18.5192 2.1875 19.2188 2.88707 19.2188 3.75V6.875C19.2188 7.73793 18.5192 8.4375 17.6562 8.4375Z" stroke="white" stroke-width="2" stroke-miterlimit="10" stroke-linecap="round" stroke-linejoin="round"/>
<path d="M17.6562 17.8125H13.125C12.2621 17.8125 11.5625 17.1129 11.5625 16.25V13.125C11.5625 12.2621 12.2621 11.5625 13.125 11.5625H17.6562C18.5192 11.5625 19.2188 12.2621 19.2188 13.125V16.25C19.2188 17.1129 18.5192 17.8125 17.6562 17.8125Z" stroke="white" stroke-width="2" stroke-miterlimit="10" stroke-linecap="round" stroke-linejoin="round"/>
</g>
<defs>
<clipPath id="clip0_305_1743">
<rect width="20" height="20" fill="white"/>
</clipPath>
</defs>
</svg>
