<svg width="24" height="24" viewBox="0 0 24 24" fill="none" xmlns="http://www.w3.org/2000/svg">
<path fill-rule="evenodd" clip-rule="evenodd" d="M8.00605 0.666572C8.00608 0.490019 8.07621 0.320702 8.20102 0.195829C8.32584 0.0709565 8.49512 0.000743383 8.67167 0.000619141L15.3275 0.000244141C15.5041 0.000653545 15.6733 0.0710611 15.7981 0.196034C15.9229 0.321008 15.993 0.490351 15.9931 0.666947V2.31306H8.00605V0.666572ZM18.9495 23.0467C18.9326 23.3063 18.817 23.5495 18.6266 23.7267C18.4361 23.9038 18.1851 24.0015 17.925 23.9997H5.99764C5.73761 23.999 5.48746 23.8999 5.29745 23.7224C5.10743 23.5449 4.9916 23.3021 4.97323 23.0427L3.95258 8.11215H20.0389L18.9498 23.0465L18.9495 23.0467ZM21.6012 6.7599H2.39844V5.21303C2.39872 4.80276 2.5618 4.40938 2.85187 4.11925C3.14194 3.82912 3.53529 3.66596 3.94555 3.66559L20.0539 3.66507C20.4641 3.66571 20.8573 3.82901 21.1473 4.11917C21.4373 4.40933 21.6003 4.80266 21.6007 5.21289V6.75976L21.6012 6.7599ZM8.90787 20.4404C8.90787 20.5292 8.92536 20.6171 8.95933 20.6991C8.99331 20.7811 9.0431 20.8557 9.10588 20.9184C9.16865 20.9812 9.24318 21.031 9.3252 21.065C9.40722 21.099 9.49513 21.1164 9.58391 21.1164C9.67268 21.1164 9.76059 21.099 9.84261 21.065C9.92463 21.031 9.99916 20.9812 10.0619 20.9184C10.1247 20.8557 10.1745 20.7811 10.2085 20.6991C10.2425 20.6171 10.2599 20.5292 10.2599 20.4404V10.9601C10.2585 10.7818 10.1867 10.6113 10.0602 10.4857C9.9336 10.3601 9.76255 10.2896 9.58426 10.2895C9.40596 10.2895 9.23486 10.3599 9.10822 10.4854C8.98158 10.6109 8.90965 10.7813 8.90811 10.9596V20.4404H8.90787ZM13.7313 20.4404C13.7313 20.6197 13.8025 20.7917 13.9293 20.9185C14.0561 21.0453 14.2281 21.1165 14.4074 21.1165C14.5868 21.1165 14.7587 21.0453 14.8855 20.9185C15.0123 20.7917 15.0836 20.6197 15.0836 20.4404V10.9601C15.0821 10.7818 15.0103 10.6112 14.8838 10.4856C14.7572 10.36 14.5861 10.2895 14.4078 10.2894C14.2295 10.2894 14.0583 10.3598 13.9317 10.4853C13.805 10.6108 13.7331 10.7813 13.7315 10.9596L13.7313 20.4404Z" fill="#FC0005"/>
</svg>
