<svg width="22" height="22" viewBox="0 0 22 22" fill="none" xmlns="http://www.w3.org/2000/svg">
<path d="M19.3412 2.65829C19.0854 2.39915 18.7806 2.19339 18.4447 2.05296C18.1087 1.91252 17.7482 1.84021 17.3841 1.84021C17.0199 1.84021 16.6594 1.91252 16.3235 2.05296C15.9875 2.19339 15.6828 2.39915 15.427 2.65829L13.667 4.44579L17.5537 8.33245L19.3137 6.57245C19.5746 6.31847 19.7825 6.01519 19.9253 5.68022C20.0681 5.34525 20.143 4.98525 20.1455 4.62112C20.1481 4.25699 20.0783 3.89597 19.9402 3.55903C19.8021 3.22208 19.5985 2.91591 19.3412 2.65829Z" fill="#222222"/>
<path d="M12.3657 5.74744L4.67482 13.4383C4.60588 13.5092 4.54725 13.5894 4.50065 13.6766L1.95232 18.8191C1.87839 18.9579 1.84142 19.1134 1.84496 19.2706C1.8485 19.4279 1.89243 19.5815 1.97253 19.7169C2.05263 19.8522 2.16621 19.9647 2.30233 20.0434C2.43846 20.1222 2.59256 20.1646 2.74982 20.1666C2.88949 20.1672 3.02745 20.1358 3.15315 20.0749L8.29566 17.5266C8.38288 17.48 8.46311 17.4214 8.53399 17.3524L16.2248 9.6616L12.3657 5.74744Z" fill="#222222"/>
<path d="M19.2497 20.1666H10.9997C10.7566 20.1666 10.5234 20.07 10.3515 19.8981C10.1796 19.7262 10.083 19.493 10.083 19.2499C10.083 19.0068 10.1796 18.7736 10.3515 18.6017C10.5234 18.4298 10.7566 18.3333 10.9997 18.3333H19.2497C19.4928 18.3333 19.7259 18.4298 19.8979 18.6017C20.0698 18.7736 20.1663 19.0068 20.1663 19.2499C20.1663 19.493 20.0698 19.7262 19.8979 19.8981C19.7259 20.07 19.4928 20.1666 19.2497 20.1666Z" fill="#222222"/>
</svg>
