<svg width="28" height="28" viewBox="0 0 28 28" fill="none" xmlns="http://www.w3.org/2000/svg">
<g clip-path="url(#clip0_1255_4053)">
<path d="M0 0V28H28V0H0ZM26.3594 1.64062V3.33594H1.64062V1.64062H26.3594ZM1.64062 26.3594V4.97656H26.3594V26.3594H1.64062Z" fill="white"/>
<path d="M11.5391 6.61719H3.33594V11.5391H11.5391V6.61719ZM9.89844 9.89844H4.97656V8.25781H9.89844V9.89844Z" fill="white"/>
<path d="M3.33594 24.6641H18.1016V19.7422H3.33594V24.6641ZM4.97656 21.3828H16.4609V23.0234H4.97656V21.3828Z" fill="white"/>
<path d="M6.61719 18.1016H18.1016V13.1797H6.61719V18.1016ZM8.25781 14.8203H16.4609V16.4609H8.25781V14.8203Z" fill="white"/>
<path d="M23.0233 8.25781H18.3005L15.6405 5.59778L12.1602 9.07812L15.6405 12.5585L18.3005 9.89844H21.3827V19.5431L18.7227 22.2031L22.203 25.6835L25.6833 22.2031L23.0233 19.5431V8.25781ZM15.6405 10.2383L14.4803 9.07812L15.6405 7.91794L16.8007 9.07812L15.6405 10.2383ZM22.203 23.3633L21.0428 22.2031L22.203 21.0429L23.3632 22.2031L22.203 23.3633Z" fill="white"/>
</g>
<defs>
<clipPath id="clip0_1255_4053">
<rect width="28" height="28" fill="white"/>
</clipPath>
</defs>
</svg>
