<svg width="33" height="37" viewBox="0 0 33 37" fill="none" xmlns="http://www.w3.org/2000/svg">
<path d="M29.2356 19.7325V16.5H26.726V20.25C26.726 20.5815 26.8583 20.8994 27.0936 21.1338L30.4904 24.5175V26.5H2.88462V24.5175L6.28138 21.1338C6.51672 20.8994 6.64897 20.5815 6.64904 20.25V15.25C6.64554 13.4935 7.10742 11.7672 7.98803 10.2454C8.86863 8.72362 10.1368 7.46029 11.6644 6.58301C13.192 5.70572 14.9249 5.24555 16.6882 5.24897C18.4514 5.2524 20.1826 5.71929 21.7067 6.6025V3.80875C20.5123 3.2819 19.2418 2.94611 17.9423 2.81375V0.25H15.4327V2.8125C12.3391 3.12617 9.47206 4.57139 7.38607 6.86873C5.30009 9.16606 4.14331 12.1523 4.13942 15.25V19.7325L0.742659 23.1162C0.50732 23.3506 0.375071 23.6685 0.375 24V27.75C0.375 28.0815 0.507203 28.3995 0.742525 28.6339C0.977847 28.8683 1.29701 29 1.62981 29H10.4135V30.25C10.4135 31.9076 11.0745 33.4973 12.2511 34.6694C13.4277 35.8415 15.0235 36.5 16.6875 36.5C18.3515 36.5 19.9473 35.8415 21.1239 34.6694C22.3005 33.4973 22.9615 31.9076 22.9615 30.25V29H31.7452C32.078 29 32.3972 28.8683 32.6325 28.6339C32.8678 28.3995 33 28.0815 33 27.75V24C32.9999 23.6685 32.8677 23.3506 32.6323 23.1162L29.2356 19.7325ZM20.4519 30.25C20.4519 31.2446 20.0553 32.1984 19.3493 32.9016C18.6434 33.6049 17.6859 34 16.6875 34C15.6891 34 14.7316 33.6049 14.0257 32.9016C13.3197 32.1984 12.9231 31.2446 12.9231 30.25V29H20.4519V30.25Z" fill="black"/>
</svg>
