<svg width="630" height="314" viewBox="0 0 630 314" fill="none" xmlns="http://www.w3.org/2000/svg">
<path d="M143 5.24009C143.998 6.59256 144.525 8.03578 144.194 10.2928C149.73 9.50241 153.152 8.3051 158.073 6.24127C158.105 2.9889 157.365 1.21195 156.709 0C152.063 3.33141 148.515 4.30331 143 5.24009Z" fill="#FF0E41"/>
<path d="M606.779 226.502C605.171 225.29 604.416 224.573 603.728 223.01C603.09 223.49 602.622 223.692 602.109 223.619C602.739 225.358 603.564 226.362 605.157 227.796C605.848 227.5 606.348 227.067 606.779 226.502Z" fill="#008DF0"/>
<path d="M578.892 242.559C575.915 241.081 574.313 239.965 571.971 237.556C570.774 238.683 569.949 239.857 569.659 241.365C571.073 243.136 573.265 244.889 576.421 246.962C576.661 244.556 577.173 243.367 578.892 242.559Z" fill="#00D339"/>
<path d="M509 205.479C510.874 207.139 513.011 207.391 516.433 206.946C516.351 201.498 516.928 198.283 518.878 193.474C516.363 193.664 514.615 192.985 511.427 191C509.492 195.912 508.983 200.022 509 205.479Z" fill="white"/>
<path d="M607 96.8092C608.063 98.9082 609.843 99.8655 612.987 100.662C614.799 95.8754 616.415 93.267 619.781 89.7366C617.518 89.034 616.227 87.8367 614.128 85C610.738 88.6212 608.871 92.0375 607 96.8092Z" fill="white"/>
<path d="M221.199 28C218.96 28.0732 217.748 28.3659 216 30.0228C216.972 33.6265 217.297 35.8367 217.508 39.4872C218.74 38.9486 219.709 38.8402 220.538 38.9105C220.166 34.7301 220.467 32.116 221.199 28Z" fill="#FF41AA"/>
<path d="M122.759 70C119.173 75.202 117.516 78.8028 116 83.8789C120.104 84.8157 122.844 84.6693 125.385 83.9404C125.584 80.6675 126.96 78.5159 129.381 75.3689C125.912 74.3033 124.408 72.8864 122.759 70Z" fill="white"/>
<path d="M560.807 129.523C561.541 129.061 562.276 128.806 563.321 128.636C562.039 126.857 561.272 125.601 560.672 124.043C559.527 123.932 558.933 124.172 558.166 124.632C558.55 125.788 559.513 127.594 560.807 129.523Z" fill="#00D339"/>
<path d="M624.984 131C622.054 132.891 618.339 133.579 610.008 131.972C609.905 135.646 610.821 138.857 613.292 142.718C619.656 143.055 623.471 142.742 629.191 140.394C626.624 137.636 625.865 135.409 624.984 131Z" fill="#FF0E41"/>
<path d="M31.0745 179.172C30.3075 180.715 30.5212 182.181 31.4316 184.374C35.0382 183.346 37.2777 183.153 40.8257 183.586C40.249 181.95 40.3866 180.668 41.136 178.191C37.5206 177.784 34.6957 178.182 31.0745 179.172Z" fill="#FF41AA"/>
<path d="M500.66 121.777C504.337 122.588 506.438 122.612 509.972 120.639C509.884 114.365 510.267 110.627 511.435 104.588C509.208 104.954 507.583 104.734 506.26 104.271C505.133 111.239 503.555 115.375 500.66 121.777Z" fill="#FF0E41"/>
<path d="M356.78 132.31C353.844 132.225 350.644 132.41 347.836 134.321C347.195 136.696 346.63 138.268 345.336 140.454C347.465 139.992 348.782 140.724 350.916 142.972C351.958 139.371 353.99 136.365 356.78 132.31Z" fill="#00D339"/>
<path d="M580.171 313.072C581.076 311.708 582.221 310.748 584.396 310.3C581.834 305.499 579.601 302.77 576.076 298.953C573.09 300.004 571.711 301.272 570.821 302.276C575.417 305.417 577.484 308.338 580.171 313.072Z" fill="#FF0E41"/>
<path d="M126.007 223.992C125.939 225.526 126.37 226.492 127.649 227.587C129.242 227.297 130.351 226.869 131.203 225.965C130.775 224.29 130.972 223.061 131.502 221C129.593 222.437 128.366 223.269 126.007 223.992Z" fill="#00D339"/>
<path d="M89.2071 273.329C89.0315 271.228 88.2792 269.986 86.3412 268.716C84.2188 269.389 82.7815 270.165 81.7803 271.55C82.6556 273.76 82.6058 275.469 82.2399 278.37C84.5906 276.078 86.1158 274.729 89.2071 273.329Z" fill="#FF0E41"/>
<path d="M90.8704 180.871C92.0413 179.155 92.58 177.967 93.0718 176.295C91.7193 175.993 90.8206 176.043 89.9834 176.289C89.9219 177.366 89.474 178.075 88.6807 179.114C89.8253 179.462 90.3259 179.925 90.8704 180.871Z" fill="#FF0E41"/>
<path d="M271.886 83.6852C274.503 79.8503 275.706 77.198 276.804 73.4656C273.786 72.7893 271.775 72.9064 269.907 73.4539C269.772 75.8602 268.768 77.4439 267 79.7654C269.553 80.5353 270.665 81.5687 271.886 83.6852Z" fill="#FF0E41"/>
<path d="M449.55 122C447.905 125.413 446.936 128.32 447.181 131.476C449.386 132.7 451.008 133.019 452.951 132.805C452.966 128.97 453.528 126.816 455.361 123.496C452.764 123.792 451.198 123.575 449.55 122Z" fill="#00D339"/>
<path d="M524.395 294.524C523.95 296.512 523.605 297.504 522.451 298.792C523.16 299.179 523.543 299.527 523.687 300.03C525.024 298.725 525.604 297.545 526.26 295.478C525.704 294.966 525.095 294.688 524.395 294.524Z" fill="#00D339"/>
<path d="M542.976 250.206C544.179 250.048 545.274 250.221 546.585 251.219C548.022 247.446 548.462 244.87 548.88 241.038C546.837 239.879 545.458 239.726 544.463 239.718C544.943 243.819 544.316 246.398 542.976 250.206Z" fill="#FF0E41"/>
<path d="M323.261 112.126C321.958 112.243 320.55 112.492 319.408 113.484C319.25 114.567 319.083 115.293 318.624 116.33C319.543 116.014 320.16 116.268 321.226 117.152C321.498 115.504 322.239 114.064 323.261 112.126Z" fill="#008DF0"/>
<path d="M341.371 26.0357C338.684 26.7237 335.71 26.308 329.831 23C328.827 25.743 328.71 28.3952 329.603 31.9316C334.313 33.7875 337.27 34.5106 342.176 34.1798C340.941 31.4544 340.926 29.5808 341.371 26.0357Z" fill="#00D339"/>
<path d="M31.701 166.359C32.1138 164.811 32.4183 164.041 33.3638 163.066C32.8193 162.738 32.5295 162.454 32.43 162.053C31.338 163.037 30.8462 163.947 30.2637 165.551C30.6881 165.97 31.1565 166.21 31.701 166.359Z" fill="white"/>
<path d="M140.337 155.276C141.277 155.665 142.056 155.481 143.321 155.133C142.457 152.401 142.357 149.245 142.583 145.58C141.552 145.812 140.859 145.703 139.767 145.293C139.298 149.158 139.374 151.359 140.337 155.276Z" fill="#FF41AA"/>
<path d="M10.7378 135.585C11.3848 136.689 12.1927 137.831 13.5452 138.428C14.5698 138.117 15.2812 137.962 16.3906 137.936C15.729 137.257 15.6968 136.601 16.0335 135.292C14.4615 135.735 12.8807 135.679 10.7378 135.585Z" fill="#00D339"/>
<path d="M400.551 155.238C397.84 153.701 396.189 153.168 392.91 153.865C391.449 158.847 390.232 161.707 387.837 166.195C389.687 166.45 390.919 167.021 391.85 167.709C394.441 162.477 396.698 159.594 400.551 155.238Z" fill="#008DF0"/>
<path d="M77.0159 215C74.2465 216.865 72.2149 218.642 71 221.148C72.13 223.059 73.219 224.022 74.7939 224.725C76.5123 221.815 77.897 220.43 80.7688 218.721C78.6611 217.793 77.5691 216.929 77.0159 215Z" fill="white"/>
<path d="M504.143 139.652C504.571 142.561 503.956 144.312 502.65 146.765C507.446 146.97 512.27 146.622 514.331 145.784C514.509 143.489 514.126 141.525 513.23 138.887C510.909 139.871 508.385 139.848 504.143 139.652Z" fill="#00D339"/>
<path d="M243.5 140.434C242.315 143.341 242.482 145.496 244.194 148.481C247.464 149.02 249.894 148.959 252.157 147.796C252.485 144.275 253.702 142.041 256.141 138.435C251.477 139.898 248.544 140.662 243.5 140.434Z" fill="#FF41AA"/>
<path d="M43.9093 132.128C44.7231 127.002 45.4462 124.414 48.1716 120.954C46.3039 120.081 45.2793 119.256 44.8256 118C41.6288 121.536 40.3408 124.631 39 129.994C40.5106 131.209 42.106 131.82 43.9093 132.128Z" fill="#008DF0"/>
<path d="M413 81.6593C413.741 82.7541 414.104 83.9017 413.77 85.664C418.141 85.2278 420.863 84.3993 424.792 82.9415C424.923 80.3917 424.402 78.9719 423.925 78C420.172 80.4649 417.359 81.1089 413 81.6593Z" fill="#FF41AA"/>
<path d="M39.7454 256.142C40.5651 254.202 40.7934 253.048 40.0674 250.902C36.6072 250.314 34.5902 249.72 31.3876 248.464C31.3613 249.729 31.0744 250.598 30.6851 251.28C34.4058 252.609 36.5194 253.897 39.7454 256.142Z" fill="#FF0E41"/>
<path d="M577.756 191.446C577.428 189.904 576.984 189.034 575.736 187.746C574.445 189.239 573.412 189.863 572.083 190.243C572.282 191.713 572.663 192.67 573.427 194.069C574.75 192.857 575.892 192.225 577.756 191.446Z" fill="#00D339"/>
<path d="M595.294 256.596C596.969 254.86 598.629 252.814 599.018 250.053C597.929 248.353 597.285 247.141 596.673 245.144C595.777 246.693 594.606 247.088 592.06 247.141C593.67 249.766 594.375 252.662 595.294 256.596Z" fill="#FF0E41"/>
<path d="M596.535 198.674C593.865 196.171 592.124 195.108 588.192 195C585.151 200.284 582.97 203.211 579 207.679C581.04 208.478 582.29 209.47 583.166 210.515C587.563 205.252 590.935 202.585 596.535 198.674Z" fill="white"/>
<path d="M471.063 163.619C473.367 164.837 475.99 165.947 478.973 165.525C480.414 163.886 481.479 162.852 483.367 161.623C481.491 161.154 480.733 160.057 479.913 157.431C477.668 159.887 474.872 161.488 471.063 163.619Z" fill="#008DF0"/>
<path d="M74.0814 143.955C75.3929 141.853 75.9755 140.416 76.479 138.399C74.8543 138.106 73.7857 138.211 72.8021 138.542C72.7816 139.827 72.281 140.694 71.3911 141.97C72.7699 142.327 73.3847 142.854 74.0814 143.955Z" fill="white"/>
<path d="M205.676 96.9286C204.566 96.0211 203.829 94.935 203.629 93C199.215 94.8121 196.639 96.5217 193 99.2588C193.656 101.955 194.639 103.272 195.439 104.136C198.583 100.406 201.311 98.8578 205.676 96.9286Z" fill="#00D339"/>
<path d="M544.937 45.9075C544.035 46.7769 543.748 47.5907 543.891 48.9578C544.998 49.6809 545.894 50.0527 546.91 49.9912C547.598 48.7588 548.403 48.1411 549.875 47.216C547.934 46.9994 546.743 46.8062 544.937 45.9075Z" fill="#FF41AA"/>
<path d="M0 156.61C0.0702581 158.814 0.35129 161.206 1.91161 163.223C3.72075 163.595 4.92392 163.949 6.62183 164.819C6.17686 163.244 6.66867 162.225 8.25533 160.524C5.51234 159.903 3.16454 158.516 0 156.61Z" fill="#00D339"/>
<path d="M529.105 188.876C528.771 190.513 528.833 191.543 529.497 193.32C531.383 192.418 532.647 192.249 534.096 192.445C534.527 190.934 534.562 189.848 534.412 188.165C532.618 188.78 531.242 188.911 529.105 188.876Z" fill="#008DF0"/>
<path d="M181.53 202.6C179.557 202.6 178.57 201.64 178.57 199.72C178.57 198.973 179.13 198.36 180.25 197.88C181.37 197.347 182.837 196.92 184.65 196.6C186.517 196.227 188.49 195.96 190.57 195.8C192.704 195.64 194.757 195.533 196.73 195.48C198.704 195.373 200.437 195.32 201.93 195.32C203.424 195.267 204.41 195.24 204.89 195.24H209.29C213.397 195.24 217.557 195.32 221.77 195.48C225.984 195.64 230.037 196.093 233.93 196.84C234.144 196.893 234.517 197 235.05 197.16C235.637 197.267 236.17 197.453 236.65 197.72C237.184 197.933 237.45 198.227 237.45 198.6C237.45 198.867 237.21 199.053 236.73 199.16C236.304 199.213 235.93 199.24 235.61 199.24C234.917 199.24 234.197 199.187 233.45 199.08C232.704 198.973 231.957 198.867 231.21 198.76C229.024 198.387 226.757 198.173 224.41 198.12C222.117 198.067 219.824 198.04 217.53 198.04C213.477 198.04 209.397 198.12 205.29 198.28C201.184 198.387 197.104 198.68 193.05 199.16C192.944 199.587 192.384 200.013 191.37 200.44C190.357 200.867 189.157 201.24 187.77 201.56C186.437 201.88 185.157 202.147 183.93 202.36C182.757 202.52 181.957 202.6 181.53 202.6ZM188.01 248.2C186.837 248.2 186.01 247.773 185.53 246.92C185.05 246.12 184.81 245.16 184.81 244.04C184.81 242.227 185.21 240.067 186.01 237.56C186.81 235 187.85 232.307 189.13 229.48C190.41 226.6 191.77 223.773 193.21 221C194.65 218.173 196.01 215.613 197.29 213.32C198.57 210.973 199.637 209.08 200.49 207.64C201.13 206.52 201.797 205.32 202.49 204.04C203.184 202.707 203.93 201.533 204.73 200.52C204.997 200.147 205.45 199.907 206.09 199.8C206.73 199.693 207.237 199.64 207.61 199.64C208.037 199.64 208.517 199.72 209.05 199.88C209.584 200.04 209.877 200.413 209.93 201C209.93 201.427 209.824 201.853 209.61 202.28C209.45 202.653 209.264 203 209.05 203.32C206.65 207.213 204.25 210.947 201.85 214.52C199.45 218.093 197.21 221.933 195.13 226.04C194.704 226.893 194.064 228.093 193.21 229.64C192.357 231.133 191.477 232.787 190.57 234.6C189.717 236.413 188.97 238.2 188.33 239.96C187.744 241.72 187.45 243.267 187.45 244.6C187.45 244.813 187.477 245.16 187.53 245.64C187.637 246.12 187.93 246.36 188.41 246.36C188.677 246.36 188.81 246.6 188.81 247.08C188.81 247.347 188.73 247.587 188.57 247.8C188.464 248.067 188.277 248.2 188.01 248.2ZM226.358 243.88C225.558 243.88 224.625 243.613 223.558 243.08C222.492 242.547 221.958 241.827 221.958 240.92C221.958 240.12 222.252 239.107 222.838 237.88C223.425 236.653 224.145 235.347 224.998 233.96C225.852 232.573 226.732 231.24 227.638 229.96C228.545 228.627 229.318 227.507 229.958 226.6C230.652 225.64 231.078 225 231.238 224.68C231.985 223.667 232.438 223.027 232.598 222.76C232.758 222.493 232.865 222.28 232.918 222.12C232.492 222.44 231.825 222.947 230.918 223.64C230.012 224.28 229.105 224.947 228.198 225.64C227.292 226.333 226.625 226.867 226.198 227.24C223.212 229.853 220.705 232.36 218.678 234.76C216.705 237.107 214.865 239.613 213.158 242.28C213.105 242.333 212.972 242.387 212.758 242.44C212.545 242.44 212.385 242.44 212.278 242.44C211.958 242.44 211.478 242.36 210.838 242.2C210.252 242.04 210.012 241.693 210.118 241.16C210.438 240.36 210.865 239.507 211.398 238.6C211.932 237.693 212.678 236.467 213.638 234.92C214.598 233.32 215.852 231.08 217.398 228.2C217.878 227.293 218.678 225.8 219.798 223.72C220.972 221.64 222.385 219.267 224.038 216.6C225.745 213.933 227.638 211.293 229.718 208.68C231.852 206.013 234.145 203.64 236.598 201.56C239.052 199.48 241.612 197.987 244.278 197.08C244.972 196.813 245.585 196.68 246.118 196.68C247.132 196.68 247.825 197.027 248.198 197.72C248.625 198.36 249.185 198.893 249.878 199.32C250.305 199.587 250.518 200.013 250.518 200.6C250.518 201.453 249.798 202.627 248.358 204.12C246.972 205.56 245.185 207.16 242.998 208.92C240.812 210.627 238.518 212.333 236.118 214.04C233.718 215.747 231.452 217.32 229.318 218.76C227.238 220.2 225.638 221.32 224.518 222.12C224.305 222.547 223.878 223.24 223.238 224.2C222.652 225.107 222.012 226.093 221.318 227.16C220.625 228.227 219.985 229.213 219.398 230.12C218.812 231.027 218.438 231.667 218.278 232.04C219.772 230.653 221.345 229.187 222.998 227.64C224.705 226.093 226.358 224.6 227.958 223.16C229.612 221.72 231.052 220.493 232.278 219.48C232.545 219.267 232.865 219.133 233.238 219.08C233.665 219.027 234.012 219 234.278 219C235.025 219 235.905 219.32 236.918 219.96C237.932 220.6 238.438 221.373 238.438 222.28C238.438 222.867 238.118 223.453 237.478 224.04C235.878 225.48 234.252 227.16 232.598 229.08C230.945 230.947 229.452 232.92 228.118 235C227.745 235.64 227.212 236.573 226.518 237.8C225.878 239.027 225.558 240.013 225.558 240.76C225.558 241.293 225.718 241.56 226.038 241.56C226.678 241.56 227.558 241.213 228.678 240.52C229.852 239.827 231.105 238.947 232.438 237.88C233.825 236.76 235.185 235.613 236.518 234.44C237.905 233.267 239.132 232.173 240.198 231.16C241.265 230.147 242.038 229.373 242.518 228.84C242.838 228.52 243.105 228.36 243.318 228.36C243.638 228.36 243.798 228.52 243.798 228.84C243.798 229 243.692 229.24 243.478 229.56C242.785 230.467 241.772 231.613 240.438 233C239.105 234.333 237.638 235.72 236.038 237.16C234.438 238.547 232.892 239.827 231.398 241C229.958 242.12 228.758 242.973 227.798 243.56C227.425 243.773 226.945 243.88 226.358 243.88ZM226.198 219C226.625 218.68 227.345 218.173 228.358 217.48C229.425 216.733 230.598 215.907 231.878 215C233.212 214.04 234.518 213.107 235.798 212.2C237.078 211.24 238.145 210.387 238.998 209.64C240.705 208.147 242.118 206.92 243.238 205.96C244.412 205 245.425 203.88 246.278 202.6C246.492 202.333 246.625 202.093 246.678 201.88C246.732 201.667 246.758 201.48 246.758 201.32C246.758 201 246.598 200.76 246.278 200.6C246.012 200.44 245.665 200.36 245.238 200.36C244.438 200.36 243.398 200.787 242.118 201.64C240.838 202.493 239.452 203.64 237.958 205.08C236.465 206.467 234.972 207.987 233.478 209.64C231.985 211.293 230.598 212.947 229.318 214.6C228.038 216.2 226.998 217.667 226.198 219ZM257.308 243.72C256.828 243.72 256.268 243.507 255.628 243.08C255.041 242.653 254.534 242.173 254.108 241.64C253.681 241.053 253.468 240.52 253.468 240.04C253.468 239.24 253.761 238.173 254.348 236.84C254.934 235.453 255.601 234.093 256.348 232.76C257.148 231.427 257.761 230.44 258.188 229.8C257.441 230.44 256.481 231.48 255.308 232.92C254.188 234.307 252.961 235.8 251.628 237.4C250.348 238.947 249.094 240.28 247.868 241.4C246.694 242.52 245.681 243.08 244.828 243.08C243.654 243.08 242.694 242.68 241.948 241.88C241.254 241.027 240.908 240.013 240.908 238.84C240.908 237.24 241.361 235.533 242.268 233.72C243.174 231.853 244.348 230.067 245.788 228.36C247.281 226.6 248.881 225 250.588 223.56C252.348 222.12 254.054 220.973 255.708 220.12C257.414 219.267 258.934 218.84 260.268 218.84C261.708 218.84 262.881 219.187 263.788 219.88C264.694 220.52 265.148 221.507 265.148 222.84C265.148 223.053 265.094 223.453 264.988 224.04C264.934 224.627 264.748 224.92 264.428 224.92C264.268 224.92 264.001 224.68 263.628 224.2C263.308 223.72 262.854 223.24 262.268 222.76C261.681 222.28 260.934 222.04 260.028 222.04C258.534 222.04 256.961 222.6 255.308 223.72C253.708 224.787 252.161 226.173 250.668 227.88C249.174 229.533 247.868 231.24 246.748 233C245.628 234.76 244.774 236.28 244.188 237.56C244.028 237.933 243.868 238.333 243.708 238.76C243.601 239.187 243.548 239.613 243.548 240.04C243.548 240.52 243.681 240.76 243.948 240.76C244.214 240.76 244.774 240.467 245.628 239.88C246.534 239.293 247.174 238.867 247.548 238.6C249.414 237.267 251.174 235.747 252.828 234.04C254.534 232.333 256.054 230.573 257.388 228.76C257.814 228.173 258.214 227.587 258.588 227C258.961 226.413 259.334 225.853 259.708 225.32C259.974 224.947 260.241 224.76 260.508 224.76C261.094 224.76 261.654 225.16 262.188 225.96C262.774 226.76 263.068 227.453 263.068 228.04C263.068 228.307 263.014 228.467 262.908 228.52C262.854 228.573 262.694 228.733 262.428 229C261.628 229.8 260.828 230.92 260.028 232.36C259.281 233.8 258.614 235.267 258.028 236.76C257.494 238.2 257.094 239.427 256.828 240.44C256.774 240.6 256.721 240.813 256.668 241.08C256.668 241.293 256.801 241.373 257.068 241.32C257.601 241.16 258.454 240.573 259.628 239.56C260.854 238.493 262.161 237.293 263.548 235.96C264.988 234.573 266.268 233.293 267.388 232.12C268.561 230.947 269.334 230.12 269.708 229.64C269.814 229.533 269.921 229.427 270.028 229.32C270.188 229.16 270.348 229.08 270.508 229.08C270.881 229.08 271.068 229.267 271.068 229.64C271.068 229.853 270.641 230.493 269.788 231.56C268.934 232.573 267.868 233.773 266.588 235.16C265.308 236.493 264.001 237.827 262.668 239.16C261.334 240.44 260.161 241.533 259.148 242.44C258.188 243.293 257.574 243.72 257.308 243.72ZM286.864 243.88C286.064 243.88 285.157 243.64 284.144 243.16C283.184 242.733 282.704 242.04 282.704 241.08C282.704 239.96 283.131 238.627 283.984 237.08C284.837 235.533 285.851 233.933 287.024 232.28C288.197 230.573 289.317 228.947 290.384 227.4C291.504 225.853 292.304 224.547 292.784 223.48C292.464 223.64 291.931 223.96 291.184 224.44C290.491 224.867 289.797 225.32 289.104 225.8C288.411 226.227 287.904 226.573 287.584 226.84C285.291 228.547 283.291 230.307 281.584 232.12C279.931 233.933 278.251 236.013 276.544 238.36C276.117 239 275.664 239.667 275.184 240.36C274.757 241.053 274.304 241.72 273.824 242.36C273.611 242.627 273.237 242.893 272.704 243.16C272.224 243.427 271.771 243.56 271.344 243.56C270.651 243.56 270.304 243.187 270.304 242.44C270.304 241.8 270.624 240.813 271.264 239.48C271.957 238.147 272.811 236.627 273.824 234.92C274.837 233.213 275.904 231.533 277.024 229.88C278.144 228.173 279.157 226.653 280.064 225.32C280.971 223.933 281.611 222.947 281.984 222.36C281.877 222.52 281.584 222.813 281.104 223.24C280.624 223.613 280.144 224.013 279.664 224.44C279.237 224.813 278.917 225.08 278.704 225.24C277.691 226.2 276.704 227.187 275.744 228.2C274.784 229.213 273.824 230.227 272.864 231.24C272.757 231.347 272.544 231.507 272.224 231.72C271.957 231.933 271.717 232.04 271.504 232.04C271.237 232.04 271.104 231.907 271.104 231.64C271.104 231.373 271.477 230.813 272.224 229.96C272.971 229.107 273.904 228.093 275.024 226.92C276.144 225.747 277.291 224.547 278.464 223.32C279.691 222.093 280.757 221 281.664 220.04C282.571 219.08 283.184 218.413 283.504 218.04C284.037 217.347 284.597 216.787 285.184 216.36C285.824 215.933 286.571 215.72 287.424 215.72C287.904 215.72 288.491 215.96 289.184 216.44C289.877 216.867 290.224 217.373 290.224 217.96C290.224 218.173 290.171 218.307 290.064 218.36C288.464 219.693 286.891 221.267 285.344 223.08C283.851 224.893 282.437 226.76 281.104 228.68C279.771 230.6 278.544 232.387 277.424 234.04C278.704 232.6 280.144 231.187 281.744 229.8C283.344 228.36 284.891 227.027 286.384 225.8L292.064 221.16C292.437 220.84 292.811 220.493 293.184 220.12C293.611 219.747 294.011 219.427 294.384 219.16C294.811 218.893 295.264 218.787 295.744 218.84C296.277 218.84 296.811 218.84 297.344 218.84C297.931 218.84 298.491 219 299.024 219.32C299.611 219.64 299.904 220.147 299.904 220.84C299.904 221.533 299.717 222.067 299.344 222.44C299.024 222.76 298.651 223.133 298.224 223.56C297.317 224.413 296.197 225.533 294.864 226.92C293.584 228.307 292.304 229.8 291.024 231.4C289.744 233 288.677 234.627 287.824 236.28C286.971 237.88 286.544 239.373 286.544 240.76C286.544 240.92 286.544 241.08 286.544 241.24C286.544 241.4 286.571 241.56 286.624 241.72C287.744 241.293 288.971 240.6 290.304 239.64C291.691 238.627 293.077 237.507 294.464 236.28C295.851 235.053 297.131 233.827 298.304 232.6C299.531 231.373 300.544 230.28 301.344 229.32C301.451 229.213 301.557 229.08 301.664 228.92C301.824 228.76 302.011 228.68 302.224 228.68C302.491 228.68 302.624 228.867 302.624 229.24C302.624 229.453 302.544 229.693 302.384 229.96C301.371 231.293 300.011 232.867 298.304 234.68C296.597 236.493 294.837 238.227 293.024 239.88C291.211 241.48 289.584 242.707 288.144 243.56C287.771 243.773 287.344 243.88 286.864 243.88ZM318.578 244.28C316.124 244.28 314.418 243.48 313.458 241.88C312.498 240.28 312.018 238.333 312.018 236.04C312.018 234.76 312.124 233.453 312.338 232.12C312.551 230.733 312.818 229.373 313.138 228.04C312.498 228.413 311.724 229 310.818 229.8C309.911 230.6 308.871 231.613 307.698 232.84C306.791 234.653 305.991 236.413 305.298 238.12C304.604 239.773 303.831 241.293 302.978 242.68C302.818 242.893 302.604 243.027 302.338 243.08C302.071 243.133 301.804 243.16 301.538 243.16C300.418 243.16 299.858 242.653 299.858 241.64C299.858 240.467 300.444 239.347 301.618 238.28L307.378 228.04C306.898 228.413 306.444 228.813 306.018 229.24C305.591 229.667 305.111 230.12 304.578 230.6C304.364 230.813 304.124 230.92 303.858 230.92C303.644 230.92 303.538 230.813 303.538 230.6C303.538 230.387 303.671 230.093 303.938 229.72C305.164 228.173 306.658 226.467 308.418 224.6C310.231 222.68 312.204 220.093 314.338 216.84C315.031 215.773 316.018 214.44 317.298 212.84C318.578 211.24 319.964 209.533 321.458 207.72C323.004 205.907 324.551 204.2 326.098 202.6C327.644 200.947 329.004 199.56 330.178 198.44C330.764 197.96 331.271 197.56 331.698 197.24C332.124 196.92 332.444 196.733 332.658 196.68C333.138 196.68 333.591 196.947 334.018 197.48C334.444 198.013 334.684 198.573 334.738 199.16C334.738 199.747 334.524 200.147 334.098 200.36C333.458 200.893 332.844 201.373 332.258 201.8C331.724 202.227 331.164 202.707 330.578 203.24C329.138 204.52 327.538 206.093 325.778 207.96C324.018 209.827 322.231 211.827 320.418 213.96C318.658 216.093 316.951 218.253 315.298 220.44C313.698 222.573 312.284 224.6 311.058 226.52C311.164 226.627 311.271 226.68 311.378 226.68C311.538 226.68 311.724 226.6 311.938 226.44C312.204 226.227 312.524 225.96 312.898 225.64C314.764 224.04 316.791 222.413 318.978 220.76C321.164 219.053 323.271 217.507 325.298 216.12C325.884 215.747 326.471 215.427 327.058 215.16C327.698 214.84 328.364 214.68 329.058 214.68C329.484 214.68 329.884 214.76 330.258 214.92C330.684 215.027 331.004 215.24 331.218 215.56C331.751 215.72 332.258 215.987 332.738 216.36C333.271 216.733 333.538 217.24 333.538 217.88C333.538 218.68 333.138 219.453 332.338 220.2C331.538 220.893 330.844 221.453 330.258 221.88C328.444 223.053 326.311 224.067 323.858 224.92C321.458 225.72 319.111 226.333 316.818 226.76C316.444 228.413 316.098 230.12 315.778 231.88C315.511 233.587 315.378 235.16 315.378 236.6C315.378 238.093 315.564 239.32 315.938 240.28C316.311 241.24 317.004 241.72 318.018 241.72C318.604 241.72 319.324 241.453 320.178 240.92C321.084 240.333 321.991 239.667 322.898 238.92C323.858 238.12 324.711 237.347 325.458 236.6C326.258 235.853 326.871 235.293 327.298 234.92C327.778 234.493 328.471 233.853 329.378 233C330.284 232.147 331.164 231.293 332.018 230.44C332.924 229.587 333.538 228.973 333.858 228.6C333.911 228.547 333.991 228.52 334.098 228.52C334.364 228.52 334.498 228.707 334.498 229.08C334.498 229.507 334.178 230.067 333.538 230.76L332.178 232.28C329.991 234.733 327.831 237.08 325.698 239.32C323.618 241.507 321.778 243.027 320.178 243.88C319.644 244.147 319.111 244.28 318.578 244.28ZM317.378 224.68C317.964 224.573 318.871 224.333 320.098 223.96C321.324 223.587 322.578 223.107 323.858 222.52C325.191 221.933 326.338 221.32 327.298 220.68C328.311 219.987 328.898 219.293 329.058 218.6C328.898 218.227 328.604 218.04 328.178 218.04C327.804 218.04 327.111 218.333 326.098 218.92C325.084 219.453 323.991 220.12 322.818 220.92C321.644 221.667 320.551 222.413 319.538 223.16C318.524 223.853 317.804 224.36 317.378 224.68ZM365.754 246.76C363.567 246.547 362.474 245.32 362.474 243.08C362.474 241.96 362.741 240.653 363.274 239.16C363.807 237.613 364.447 236.013 365.194 234.36C365.994 232.707 366.767 231.16 367.514 229.72C368.314 228.28 368.981 227.107 369.514 226.2C370.047 225.24 370.314 224.707 370.314 224.6C370.314 224.28 370.261 224.013 370.154 223.8C370.047 223.533 369.994 223.24 369.994 222.92C369.994 222.653 370.154 222.2 370.474 221.56C370.847 220.92 371.034 220.307 371.034 219.72C371.034 217.267 370.421 214.813 369.194 212.36C367.967 209.907 366.661 207.72 365.274 205.8C365.114 207.347 364.901 208.12 364.634 208.12C364.367 208.12 363.967 207.587 363.434 206.52C362.901 205.4 362.127 204.093 361.114 202.6C360.154 201.053 358.821 199.693 357.114 198.52C356.634 198.147 356.394 197.773 356.394 197.4C356.394 196.6 356.767 195.987 357.514 195.56C358.261 195.133 358.981 194.92 359.674 194.92C361.007 194.92 362.341 195.587 363.674 196.92C365.007 198.253 366.261 199.987 367.434 202.12C368.661 204.2 369.727 206.413 370.634 208.76C371.594 211.107 372.367 213.293 372.954 215.32C373.541 217.347 373.861 218.92 373.914 220.04C376.794 216.627 379.647 213.187 382.474 209.72C385.354 206.2 388.421 202.92 391.674 199.88C391.781 199.187 392.234 198.413 393.034 197.56C393.834 196.653 394.741 195.88 395.754 195.24C396.767 194.547 397.567 194.2 398.154 194.2C398.901 194.2 399.594 194.547 400.234 195.24C400.874 195.88 401.194 196.573 401.194 197.32C401.194 197.853 400.927 198.307 400.394 198.68C398.741 199.8 396.741 201.4 394.394 203.48C392.047 205.507 389.541 207.853 386.874 210.52C384.207 213.133 381.594 215.907 379.034 218.84C376.527 221.72 374.207 224.627 372.074 227.56C369.994 230.44 368.314 233.187 367.034 235.8C365.807 238.413 365.194 240.733 365.194 242.76C365.194 243.773 365.247 244.36 365.354 244.52C365.461 244.733 365.861 244.84 366.554 244.84C367.301 244.84 367.674 245.027 367.674 245.4C367.674 245.72 367.487 246.04 367.114 246.36C366.741 246.68 366.287 246.813 365.754 246.76ZM388.789 243.88C387.242 243.88 386.096 243.267 385.349 242.04C384.602 240.76 384.229 239.453 384.229 238.12C384.229 236.307 384.709 234.36 385.669 232.28C386.629 230.147 387.776 228.12 389.109 226.2C390.496 224.28 391.722 222.707 392.789 221.48C393.056 221.16 393.402 221 393.829 221C394.309 221 394.789 221.187 395.269 221.56C396.389 220.76 397.669 220.04 399.109 219.4C400.602 218.76 402.042 218.44 403.429 218.44C405.829 218.44 407.029 219.667 407.029 222.12C407.029 224.467 406.442 226.627 405.269 228.6C404.149 230.573 402.896 232.493 401.509 234.36C401.136 234.84 400.762 235.293 400.389 235.72C400.069 236.147 399.696 236.573 399.269 237C401.616 236.36 403.669 235.293 405.429 233.8C407.189 232.307 408.922 230.76 410.629 229.16C410.842 228.947 411.029 228.787 411.189 228.68C411.402 228.52 411.669 228.44 411.989 228.44C412.256 228.44 412.389 228.627 412.389 229C412.389 229.053 412.309 229.187 412.149 229.4C411.989 229.613 411.882 229.773 411.829 229.88C410.069 232.013 407.882 234.013 405.269 235.88C402.709 237.693 400.016 238.813 397.189 239.24C396.176 240.253 394.896 241.293 393.349 242.36C391.802 243.373 390.282 243.88 388.789 243.88ZM395.029 237.56C395.242 237.56 395.429 237.56 395.589 237.56C395.802 237.56 396.016 237.533 396.229 237.48C397.296 236.2 398.389 234.68 399.509 232.92C400.682 231.16 401.669 229.347 402.469 227.48C403.269 225.56 403.669 223.827 403.669 222.28C403.669 221.32 403.216 220.84 402.309 220.84C401.402 220.84 400.362 221.107 399.189 221.64C398.016 222.173 397.029 222.733 396.229 223.32V223.56C396.229 224.093 395.802 224.867 394.949 225.88C394.149 226.84 393.269 227.827 392.309 228.84C391.402 229.853 390.736 230.707 390.309 231.4C390.149 233.16 390.496 234.627 391.349 235.8C392.202 236.973 393.429 237.56 395.029 237.56ZM388.869 242.52C389.882 242.52 390.869 242.147 391.829 241.4C392.842 240.653 393.696 239.96 394.389 239.32C393.109 239.213 391.936 238.787 390.869 238.04C389.856 237.24 388.922 236.36 388.069 235.4C387.909 235.72 387.696 236.333 387.429 237.24C387.162 238.147 387.029 239.053 387.029 239.96C387.029 240.653 387.162 241.267 387.429 241.8C387.696 242.28 388.176 242.52 388.869 242.52ZM429.427 243.56C428.36 243.56 427.24 243.107 426.067 242.2C424.893 241.293 424.307 240.253 424.307 239.08C424.307 238.013 424.573 236.76 425.107 235.32C425.64 233.88 426.253 232.573 426.947 231.4C425.293 233.16 423.613 234.92 421.907 236.68C420.253 238.44 418.627 240.227 417.027 242.04C416.493 242.68 415.853 243 415.107 243C414.093 243 413.133 242.467 412.227 241.4C411.373 240.333 410.947 239.32 410.947 238.36C410.947 238.093 410.973 237.88 411.027 237.72C411.4 236.707 411.827 235.72 412.307 234.76C412.84 233.747 413.373 232.787 413.907 231.88C414.493 230.867 415.107 229.907 415.747 229C416.44 228.04 417.133 227.08 417.827 226.12C418.093 225.8 418.333 225.48 418.547 225.16C418.813 224.787 419.053 224.413 419.267 224.04C419.427 223.773 419.507 223.453 419.507 223.08C419.507 222.707 419.48 222.387 419.427 222.12C419.96 221.427 420.68 220.76 421.587 220.12C422.493 219.427 423.373 219.08 424.227 219.08C424.44 219.08 424.787 219.16 425.267 219.32C425.8 219.427 426.28 219.587 426.707 219.8C427.187 219.96 427.427 220.147 427.427 220.36C427.427 220.573 427.32 220.787 427.107 221C426.84 221.267 426.547 221.533 426.227 221.8C425.907 222.067 425.613 222.36 425.347 222.68C424.12 223.907 422.947 225.213 421.827 226.6C420.707 227.933 419.64 229.293 418.627 230.68C418.307 231.16 417.8 231.88 417.107 232.84C416.467 233.747 415.88 234.68 415.347 235.64C414.813 236.6 414.547 237.373 414.547 237.96C414.547 238.493 414.787 238.76 415.267 238.76C415.8 238.76 416.573 238.413 417.587 237.72C418.653 236.973 419.8 236.04 421.027 234.92C422.253 233.747 423.453 232.547 424.627 231.32C425.853 230.093 426.92 228.973 427.827 227.96C428.787 226.947 429.453 226.2 429.827 225.72C430.947 224.387 432.04 222.893 433.107 221.24C433.533 220.6 434.04 220.04 434.627 219.56C435.267 219.027 435.96 218.76 436.707 218.76C437.133 218.76 437.667 218.813 438.307 218.92C439 218.973 439.347 219.293 439.347 219.88C439.347 220.093 439.267 220.307 439.107 220.52C439 220.733 438.867 220.92 438.707 221.08C436.947 222.893 435.267 224.813 433.667 226.84C432.12 228.813 430.813 230.973 429.747 233.32C429.373 234.12 429 235.187 428.627 236.52C428.253 237.8 428.067 238.893 428.067 239.8C428.067 240.707 428.413 241.16 429.107 241.16C429.587 241.16 430.067 241 430.547 240.68C431.133 240.36 431.933 239.72 432.947 238.76C433.96 237.747 435.027 236.627 436.147 235.4C437.32 234.12 438.413 232.92 439.427 231.8C440.44 230.627 441.213 229.72 441.747 229.08C441.853 228.973 441.96 228.893 442.067 228.84C442.173 228.733 442.28 228.68 442.387 228.68C442.76 228.68 442.947 228.893 442.947 229.32C442.947 229.533 442.893 229.693 442.787 229.8C442.68 229.907 442.573 230.04 442.467 230.2C440.813 232.12 439.16 234.067 437.507 236.04C435.907 238.013 434.28 239.96 432.627 241.88C432.253 242.36 431.8 242.76 431.267 243.08C430.733 243.4 430.12 243.56 429.427 243.56Z" fill="white"/>
<circle cx="306" cy="122" r="33" fill="white" stroke="#041636" stroke-width="4"/>
<path d="M289.104 125.153L300.675 134.371L321.66 106.914" stroke="#041636" stroke-width="4" stroke-linecap="round" stroke-linejoin="round"/>
</svg>
