<svg width="28" height="28" viewBox="0 0 28 28" fill="none" xmlns="http://www.w3.org/2000/svg">
<g clip-path="url(#clip0_207_2517)">
<path d="M26.25 4.15967H15.75C15.5179 4.15967 15.2954 4.06748 15.1313 3.90339C14.9672 3.73929 14.875 3.51673 14.875 3.28467C14.875 3.0526 14.9672 2.83004 15.1313 2.66595C15.2954 2.50186 15.5179 2.40967 15.75 2.40967H26.25C26.4821 2.40967 26.7046 2.50186 26.8687 2.66595C27.0328 2.83004 27.125 3.0526 27.125 3.28467C27.125 3.51673 27.0328 3.73929 26.8687 3.90339C26.7046 4.06748 26.4821 4.15967 26.25 4.15967Z" fill="white"/>
<path d="M26.25 7.65967H15.75C15.5179 7.65967 15.2954 7.56748 15.1313 7.40339C14.9672 7.23929 14.875 7.01673 14.875 6.78467C14.875 6.5526 14.9672 6.33004 15.1313 6.16595C15.2954 6.00185 15.5179 5.90967 15.75 5.90967H26.25C26.4821 5.90967 26.7046 6.00185 26.8687 6.16595C27.0328 6.33004 27.125 6.5526 27.125 6.78467C27.125 7.01673 27.0328 7.23929 26.8687 7.40339C26.7046 7.56748 26.4821 7.65967 26.25 7.65967Z" fill="white"/>
<path d="M21 11.1597H15.75C15.5179 11.1597 15.2954 11.0675 15.1313 10.9034C14.9672 10.7393 14.875 10.5167 14.875 10.2847C14.875 10.0526 14.9672 9.83004 15.1313 9.66595C15.2954 9.50186 15.5179 9.40967 15.75 9.40967H21C21.2321 9.40967 21.4546 9.50186 21.6187 9.66595C21.7828 9.83004 21.875 10.0526 21.875 10.2847C21.875 10.5167 21.7828 10.7393 21.6187 10.9034C21.4546 11.0675 21.2321 11.1597 21 11.1597Z" fill="white"/>
<path d="M4.65876 8.77954C4.20197 8.20911 3.95167 7.50088 3.94861 6.7701C3.94861 5.9028 4.29315 5.07103 4.90641 4.45776C5.51968 3.84449 6.35146 3.49996 7.21875 3.49996C8.08605 3.49996 8.91782 3.84449 9.53109 4.45776C10.1444 5.07103 10.4889 5.9028 10.4889 6.7701C10.4858 7.50088 10.2355 8.20911 9.77874 8.77954C10.7512 9.15978 11.6239 9.75739 12.33 10.5266C12.9218 9.7185 13.3137 8.78163 13.4735 7.79281C13.6334 6.80398 13.5567 5.79135 13.2497 4.83789C12.9427 3.88443 12.4142 3.01728 11.7074 2.3075C11.0006 1.59771 10.1357 1.06549 9.18359 0.75445C8.23144 0.44341 7.21915 0.362402 6.22965 0.518064C5.24016 0.673727 4.30163 1.06163 3.49097 1.64998C2.68032 2.23834 2.0206 3.0104 1.56589 3.90291C1.11118 4.79542 0.874419 5.78296 0.875001 6.78462C0.875364 8.13163 1.30732 9.44309 2.10753 10.5266C2.81362 9.75739 3.68627 9.15978 4.65876 8.77954Z" fill="white"/>
<path d="M7.21893 10.0393C6.48375 10.037 5.75655 10.1917 5.08592 10.4929C4.41529 10.7942 3.81668 11.2351 3.33008 11.7862C4.43977 12.6559 5.809 13.1286 7.21893 13.1286C8.62886 13.1286 9.99809 12.6559 11.1078 11.7862C10.6212 11.2351 10.0226 10.7942 9.35193 10.4929C8.6813 10.1917 7.95411 10.037 7.21893 10.0393Z" fill="white"/>
<path d="M8.73901 6.77016C8.73918 6.46947 8.65017 6.17548 8.48324 5.92538C8.31631 5.67528 8.07896 5.4803 7.80121 5.36511C7.52345 5.24992 7.21778 5.21969 6.92284 5.27825C6.62791 5.3368 6.35696 5.48151 6.14428 5.69407C5.9316 5.90663 5.78673 6.1775 5.728 6.4724C5.66928 6.7673 5.69933 7.07299 5.81436 7.35081C5.92939 7.62863 6.12423 7.8661 6.37423 8.03317C6.62424 8.20024 6.91818 8.28942 7.21887 8.28942C7.62175 8.28898 8.00801 8.1288 8.29297 7.84401C8.57793 7.55921 8.73833 7.17304 8.73901 6.77016Z" fill="white"/>
<path d="M26.25 18.5903H15.75C15.5179 18.5903 15.2954 18.4981 15.1313 18.3341C14.9672 18.17 14.875 17.9474 14.875 17.7153C14.875 17.4833 14.9672 17.2607 15.1313 17.0966C15.2954 16.9325 15.5179 16.8403 15.75 16.8403H26.25C26.4821 16.8403 26.7046 16.9325 26.8687 17.0966C27.0328 17.2607 27.125 17.4833 27.125 17.7153C27.125 17.9474 27.0328 18.17 26.8687 18.3341C26.7046 18.4981 26.4821 18.5903 26.25 18.5903Z" fill="white"/>
<path d="M26.25 22.0903H15.75C15.5179 22.0903 15.2954 21.9981 15.1313 21.8341C14.9672 21.67 14.875 21.4474 14.875 21.2153C14.875 20.9833 14.9672 20.7607 15.1313 20.5966C15.2954 20.4325 15.5179 20.3403 15.75 20.3403H26.25C26.4821 20.3403 26.7046 20.4325 26.8687 20.5966C27.0328 20.7607 27.125 20.9833 27.125 21.2153C27.125 21.4474 27.0328 21.67 26.8687 21.8341C26.7046 21.9981 26.4821 22.0903 26.25 22.0903Z" fill="white"/>
<path d="M21 25.5903H15.75C15.5179 25.5903 15.2954 25.4981 15.1313 25.3341C14.9672 25.17 14.875 24.9474 14.875 24.7153C14.875 24.4833 14.9672 24.2607 15.1313 24.0966C15.2954 23.9325 15.5179 23.8403 15.75 23.8403H21C21.2321 23.8403 21.4546 23.9325 21.6187 24.0966C21.7828 24.2607 21.875 24.4833 21.875 24.7153C21.875 24.9474 21.7828 25.17 21.6187 25.3341C21.4546 25.4981 21.2321 25.5903 21 25.5903Z" fill="white"/>
<path d="M4.65876 23.2103C4.20201 22.64 3.95172 21.9319 3.94861 21.2012C3.94861 20.3339 4.29314 19.5022 4.90641 18.8889C5.51968 18.2756 6.35146 17.9311 7.21875 17.9311C8.08605 17.9311 8.91782 18.2756 9.53109 18.8889C10.1444 19.5022 10.4889 20.3339 10.4889 21.2012C10.4858 21.932 10.2355 22.6402 9.77874 23.2106C10.7512 23.5908 11.6239 24.1884 12.33 24.9577C12.9218 24.1495 13.3137 23.2127 13.4735 22.2239C13.6334 21.235 13.5567 20.2224 13.2497 19.269C12.9427 18.3155 12.4142 17.4484 11.7075 16.7386C11.0007 16.0288 10.1358 15.4966 9.18367 15.1855C8.23154 14.8745 7.21925 14.7934 6.22976 14.9491C5.24027 15.1047 4.30174 15.4926 3.49108 16.0809C2.68042 16.6693 2.02069 17.4413 1.56596 18.3338C1.11124 19.2263 0.874447 20.2138 0.875001 21.2155C0.875364 22.5625 1.30732 23.8739 2.10753 24.9574C2.81364 24.1882 3.68629 23.5906 4.65876 23.2103Z" fill="white"/>
<path d="M7.21893 24.4702C6.48377 24.4679 5.75658 24.6225 5.08595 24.9237C4.41532 25.2249 3.81669 25.6658 3.33008 26.2168C4.43977 27.0866 5.809 27.5592 7.21893 27.5592C8.62886 27.5592 9.99809 27.0866 11.1078 26.2168C10.6212 25.6658 10.0225 25.2249 9.35191 24.9237C8.68128 24.6225 7.95409 24.4679 7.21893 24.4702Z" fill="white"/>
<path d="M8.73901 21.2012C8.73923 20.9005 8.65027 20.6065 8.48337 20.3564C8.31647 20.1062 8.07914 19.9112 7.80139 19.796C7.52364 19.6807 7.21795 19.6505 6.923 19.709C6.62805 19.7675 6.35708 19.9122 6.14437 20.1248C5.93166 20.3373 5.78677 20.6082 5.72802 20.9031C5.66928 21.198 5.69931 21.5037 5.81434 21.7815C5.92936 22.0594 6.1242 22.2969 6.37421 22.4639C6.62422 22.631 6.91816 22.7202 7.21887 22.7202C7.6217 22.7198 8.00793 22.5596 8.29288 22.2749C8.57783 21.9901 8.73826 21.604 8.73901 21.2012Z" fill="white"/>
</g>
<defs>
<clipPath id="clip0_207_2517">
<rect width="28" height="28" fill="white"/>
</clipPath>
</defs>
</svg>
